M48
; DRILL file {KiCad (5.1.8)-1} date 02/24/21 14:52:43
; FORMAT={-:-/ absolute / inch / decimal}
; #@! TF.CreationDate,2021-02-24T14:52:43-06:00
; #@! TF.GenerationSoftware,Kicad,Pcbnew,(5.1.8)-1
FMAT,2
INCH
T1C0.0118
T2C0.0394
%
G90
G05
T1
X3.4373Y-3.6025
X3.4373Y-3.8545
X3.4373Y-4.1064
X3.5318Y-4.2639
X3.5633Y-3.9805
X3.6578Y-4.1379
X3.6893Y-3.8545
X3.7838Y-4.2639
X3.8468Y-3.949
X3.9727Y-4.2009
X4.0357Y-3.8545
X4.1617Y-4.2639
X4.2247Y-3.949
X4.2877Y-4.1379
X4.4137Y-3.886
X4.4137Y-4.2639
T2
X3.487Y-3.6606
X3.487Y-3.7606
X3.587Y-3.6606
X3.587Y-3.7606
X3.687Y-3.6606
X3.687Y-3.7606
X3.787Y-3.6606
X3.787Y-3.7606
X3.887Y-3.6606
X3.887Y-3.7606
X3.987Y-3.6606
X3.987Y-3.7606
X4.087Y-3.6606
X4.087Y-3.7606
X4.187Y-3.6606
X4.187Y-3.7606
X4.287Y-3.6606
X4.287Y-3.7606
X4.387Y-3.6606
X4.387Y-3.7606
X3.737Y-4.0157
X3.737Y-4.1157
X3.837Y-4.0157
X3.837Y-4.1157
X3.937Y-4.0157
X3.937Y-4.1157
X4.037Y-4.0157
X4.037Y-4.1157
X4.137Y-4.0157
X4.137Y-4.1157
T0
M30
