G04 #@! TF.GenerationSoftware,KiCad,Pcbnew,(5.1.8)-1*
G04 #@! TF.CreationDate,2021-02-24T14:52:37-06:00*
G04 #@! TF.ProjectId,STLINK_Adapter,53544c49-4e4b-45f4-9164-61707465722e,rev?*
G04 #@! TF.SameCoordinates,Original*
G04 #@! TF.FileFunction,Legend,Bot*
G04 #@! TF.FilePolarity,Positive*
%FSLAX46Y46*%
G04 Gerber Fmt 4.6, Leading zero omitted, Abs format (unit mm)*
G04 Created by KiCad (PCBNEW (5.1.8)-1) date 2021-02-24 14:52:37*
%MOMM*%
%LPD*%
G01*
G04 APERTURE LIST*
%ADD10C,0.150000*%
G04 #@! TA.AperFunction,Profile*
%ADD11C,0.254000*%
G04 #@! TD*
%ADD12C,0.120000*%
G04 APERTURE END LIST*
D10*
X110666666Y-108102380D02*
X110666666Y-107102380D01*
X110428571Y-107102380D01*
X110285714Y-107150000D01*
X110190476Y-107245238D01*
X110142857Y-107340476D01*
X110095238Y-107530952D01*
X110095238Y-107673809D01*
X110142857Y-107864285D01*
X110190476Y-107959523D01*
X110285714Y-108054761D01*
X110428571Y-108102380D01*
X110666666Y-108102380D01*
X109285714Y-108054761D02*
X109380952Y-108102380D01*
X109571428Y-108102380D01*
X109666666Y-108054761D01*
X109714285Y-107959523D01*
X109714285Y-107578571D01*
X109666666Y-107483333D01*
X109571428Y-107435714D01*
X109380952Y-107435714D01*
X109285714Y-107483333D01*
X109238095Y-107578571D01*
X109238095Y-107673809D01*
X109714285Y-107769047D01*
X108857142Y-108054761D02*
X108761904Y-108102380D01*
X108571428Y-108102380D01*
X108476190Y-108054761D01*
X108428571Y-107959523D01*
X108428571Y-107911904D01*
X108476190Y-107816666D01*
X108571428Y-107769047D01*
X108714285Y-107769047D01*
X108809523Y-107721428D01*
X108857142Y-107626190D01*
X108857142Y-107578571D01*
X108809523Y-107483333D01*
X108714285Y-107435714D01*
X108571428Y-107435714D01*
X108476190Y-107483333D01*
X108000000Y-108102380D02*
X108000000Y-107435714D01*
X108000000Y-107102380D02*
X108047619Y-107150000D01*
X108000000Y-107197619D01*
X107952380Y-107150000D01*
X108000000Y-107102380D01*
X108000000Y-107197619D01*
X107095238Y-107435714D02*
X107095238Y-108245238D01*
X107142857Y-108340476D01*
X107190476Y-108388095D01*
X107285714Y-108435714D01*
X107428571Y-108435714D01*
X107523809Y-108388095D01*
X107095238Y-108054761D02*
X107190476Y-108102380D01*
X107380952Y-108102380D01*
X107476190Y-108054761D01*
X107523809Y-108007142D01*
X107571428Y-107911904D01*
X107571428Y-107626190D01*
X107523809Y-107530952D01*
X107476190Y-107483333D01*
X107380952Y-107435714D01*
X107190476Y-107435714D01*
X107095238Y-107483333D01*
X106619047Y-107435714D02*
X106619047Y-108102380D01*
X106619047Y-107530952D02*
X106571428Y-107483333D01*
X106476190Y-107435714D01*
X106333333Y-107435714D01*
X106238095Y-107483333D01*
X106190476Y-107578571D01*
X106190476Y-108102380D01*
X105333333Y-108054761D02*
X105428571Y-108102380D01*
X105619047Y-108102380D01*
X105714285Y-108054761D01*
X105761904Y-107959523D01*
X105761904Y-107578571D01*
X105714285Y-107483333D01*
X105619047Y-107435714D01*
X105428571Y-107435714D01*
X105333333Y-107483333D01*
X105285714Y-107578571D01*
X105285714Y-107673809D01*
X105761904Y-107769047D01*
X104428571Y-108102380D02*
X104428571Y-107102380D01*
X104428571Y-108054761D02*
X104523809Y-108102380D01*
X104714285Y-108102380D01*
X104809523Y-108054761D01*
X104857142Y-108007142D01*
X104904761Y-107911904D01*
X104904761Y-107626190D01*
X104857142Y-107530952D01*
X104809523Y-107483333D01*
X104714285Y-107435714D01*
X104523809Y-107435714D01*
X104428571Y-107483333D01*
X102857142Y-107578571D02*
X102714285Y-107626190D01*
X102666666Y-107673809D01*
X102619047Y-107769047D01*
X102619047Y-107911904D01*
X102666666Y-108007142D01*
X102714285Y-108054761D01*
X102809523Y-108102380D01*
X103190476Y-108102380D01*
X103190476Y-107102380D01*
X102857142Y-107102380D01*
X102761904Y-107150000D01*
X102714285Y-107197619D01*
X102666666Y-107292857D01*
X102666666Y-107388095D01*
X102714285Y-107483333D01*
X102761904Y-107530952D01*
X102857142Y-107578571D01*
X103190476Y-107578571D01*
X102285714Y-107435714D02*
X102047619Y-108102380D01*
X101809523Y-107435714D02*
X102047619Y-108102380D01*
X102142857Y-108340476D01*
X102190476Y-108388095D01*
X102285714Y-108435714D01*
X101428571Y-108007142D02*
X101380952Y-108054761D01*
X101428571Y-108102380D01*
X101476190Y-108054761D01*
X101428571Y-108007142D01*
X101428571Y-108102380D01*
X101428571Y-107483333D02*
X101380952Y-107530952D01*
X101428571Y-107578571D01*
X101476190Y-107530952D01*
X101428571Y-107483333D01*
X101428571Y-107578571D01*
X100190476Y-108102380D02*
X100190476Y-107102380D01*
X99857142Y-107816666D01*
X99523809Y-107102380D01*
X99523809Y-108102380D01*
X99047619Y-108102380D02*
X99047619Y-107435714D01*
X99047619Y-107102380D02*
X99095238Y-107150000D01*
X99047619Y-107197619D01*
X99000000Y-107150000D01*
X99047619Y-107102380D01*
X99047619Y-107197619D01*
X98571428Y-108102380D02*
X98571428Y-107102380D01*
X98476190Y-107721428D02*
X98190476Y-108102380D01*
X98190476Y-107435714D02*
X98571428Y-107816666D01*
X97380952Y-108054761D02*
X97476190Y-108102380D01*
X97666666Y-108102380D01*
X97761904Y-108054761D01*
X97809523Y-107959523D01*
X97809523Y-107578571D01*
X97761904Y-107483333D01*
X97666666Y-107435714D01*
X97476190Y-107435714D01*
X97380952Y-107483333D01*
X97333333Y-107578571D01*
X97333333Y-107673809D01*
X97809523Y-107769047D01*
X96142857Y-108102380D02*
X96142857Y-107102380D01*
X95571428Y-108102380D02*
X96000000Y-107530952D01*
X95571428Y-107102380D02*
X96142857Y-107673809D01*
X94714285Y-107435714D02*
X94714285Y-108102380D01*
X95142857Y-107435714D02*
X95142857Y-107959523D01*
X95095238Y-108054761D01*
X95000000Y-108102380D01*
X94857142Y-108102380D01*
X94761904Y-108054761D01*
X94714285Y-108007142D01*
X94285714Y-108054761D02*
X94190476Y-108102380D01*
X94000000Y-108102380D01*
X93904761Y-108054761D01*
X93857142Y-107959523D01*
X93857142Y-107911904D01*
X93904761Y-107816666D01*
X94000000Y-107769047D01*
X94142857Y-107769047D01*
X94238095Y-107721428D01*
X94285714Y-107626190D01*
X94285714Y-107578571D01*
X94238095Y-107483333D01*
X94142857Y-107435714D01*
X94000000Y-107435714D01*
X93904761Y-107483333D01*
X93428571Y-108102380D02*
X93428571Y-107102380D01*
X93000000Y-108102380D02*
X93000000Y-107578571D01*
X93047619Y-107483333D01*
X93142857Y-107435714D01*
X93285714Y-107435714D01*
X93380952Y-107483333D01*
X93428571Y-107530952D01*
X92523809Y-107435714D02*
X92523809Y-108102380D01*
X92523809Y-107530952D02*
X92476190Y-107483333D01*
X92380952Y-107435714D01*
X92238095Y-107435714D01*
X92142857Y-107483333D01*
X92095238Y-107578571D01*
X92095238Y-108102380D01*
X91238095Y-108054761D02*
X91333333Y-108102380D01*
X91523809Y-108102380D01*
X91619047Y-108054761D01*
X91666666Y-107959523D01*
X91666666Y-107578571D01*
X91619047Y-107483333D01*
X91523809Y-107435714D01*
X91333333Y-107435714D01*
X91238095Y-107483333D01*
X91190476Y-107578571D01*
X91190476Y-107673809D01*
X91666666Y-107769047D01*
X90761904Y-108102380D02*
X90761904Y-107435714D01*
X90761904Y-107626190D02*
X90714285Y-107530952D01*
X90666666Y-107483333D01*
X90571428Y-107435714D01*
X90476190Y-107435714D01*
X90142857Y-108102380D02*
X90142857Y-107435714D01*
X90142857Y-107102380D02*
X90190476Y-107150000D01*
X90142857Y-107197619D01*
X90095238Y-107150000D01*
X90142857Y-107102380D01*
X90142857Y-107197619D01*
X89666666Y-108102380D02*
X89666666Y-107102380D01*
X89571428Y-107721428D02*
X89285714Y-108102380D01*
X89285714Y-107435714D02*
X89666666Y-107816666D01*
X104619047Y-97952380D02*
X104619047Y-98666666D01*
X104666666Y-98809523D01*
X104761904Y-98904761D01*
X104904761Y-98952380D01*
X105000000Y-98952380D01*
X103666666Y-98952380D02*
X104142857Y-98952380D01*
X104142857Y-97952380D01*
X102761904Y-98857142D02*
X102809523Y-98904761D01*
X102952380Y-98952380D01*
X103047619Y-98952380D01*
X103190476Y-98904761D01*
X103285714Y-98809523D01*
X103333333Y-98714285D01*
X103380952Y-98523809D01*
X103380952Y-98380952D01*
X103333333Y-98190476D01*
X103285714Y-98095238D01*
X103190476Y-98000000D01*
X103047619Y-97952380D01*
X102952380Y-97952380D01*
X102809523Y-98000000D01*
X102761904Y-98047619D01*
X102047619Y-97952380D02*
X102047619Y-98666666D01*
X102095238Y-98809523D01*
X102190476Y-98904761D01*
X102333333Y-98952380D01*
X102428571Y-98952380D01*
X101095238Y-98952380D02*
X101571428Y-98952380D01*
X101571428Y-97952380D01*
X100190476Y-98857142D02*
X100238095Y-98904761D01*
X100380952Y-98952380D01*
X100476190Y-98952380D01*
X100619047Y-98904761D01*
X100714285Y-98809523D01*
X100761904Y-98714285D01*
X100809523Y-98523809D01*
X100809523Y-98380952D01*
X100761904Y-98190476D01*
X100714285Y-98095238D01*
X100619047Y-98000000D01*
X100476190Y-97952380D01*
X100380952Y-97952380D01*
X100238095Y-98000000D01*
X100190476Y-98047619D01*
X99476190Y-97952380D02*
X99476190Y-98666666D01*
X99523809Y-98809523D01*
X99619047Y-98904761D01*
X99761904Y-98952380D01*
X99857142Y-98952380D01*
X98523809Y-98952380D02*
X99000000Y-98952380D01*
X99000000Y-97952380D01*
X97619047Y-98857142D02*
X97666666Y-98904761D01*
X97809523Y-98952380D01*
X97904761Y-98952380D01*
X98047619Y-98904761D01*
X98142857Y-98809523D01*
X98190476Y-98714285D01*
X98238095Y-98523809D01*
X98238095Y-98380952D01*
X98190476Y-98190476D01*
X98142857Y-98095238D01*
X98047619Y-98000000D01*
X97904761Y-97952380D01*
X97809523Y-97952380D01*
X97666666Y-98000000D01*
X97619047Y-98047619D01*
X96904761Y-97952380D02*
X96904761Y-98666666D01*
X96952380Y-98809523D01*
X97047619Y-98904761D01*
X97190476Y-98952380D01*
X97285714Y-98952380D01*
X95952380Y-98952380D02*
X96428571Y-98952380D01*
X96428571Y-97952380D01*
X95047619Y-98857142D02*
X95095238Y-98904761D01*
X95238095Y-98952380D01*
X95333333Y-98952380D01*
X95476190Y-98904761D01*
X95571428Y-98809523D01*
X95619047Y-98714285D01*
X95666666Y-98523809D01*
X95666666Y-98380952D01*
X95619047Y-98190476D01*
X95571428Y-98095238D01*
X95476190Y-98000000D01*
X95333333Y-97952380D01*
X95238095Y-97952380D01*
X95095238Y-98000000D01*
X95047619Y-98047619D01*
D11*
X112500000Y-90000000D02*
G75*
G02*
X114000000Y-91500000I0J-1500000D01*
G01*
X114000000Y-108500000D02*
G75*
G02*
X112500000Y-110000000I-1500000J0D01*
G01*
X87500000Y-110000000D02*
G75*
G02*
X86000000Y-108500000I0J1500000D01*
G01*
X87500000Y-110000000D02*
X112500000Y-110000000D01*
X114000000Y-91500000D02*
X114000000Y-108500000D01*
X86000000Y-91500000D02*
X86000000Y-108500000D01*
X86000000Y-91500000D02*
G75*
G02*
X87500000Y-90000000I1500000J0D01*
G01*
X87500000Y-90000000D02*
X112500000Y-90000000D01*
D12*
X112760000Y-96850000D02*
X112760000Y-94250000D01*
X112760000Y-96850000D02*
X87240000Y-96850000D01*
X87240000Y-96850000D02*
X87240000Y-91650000D01*
X110160000Y-91650000D02*
X87240000Y-91650000D01*
X110160000Y-94250000D02*
X110160000Y-91650000D01*
X112760000Y-94250000D02*
X110160000Y-94250000D01*
X112760000Y-91650000D02*
X111430000Y-91650000D01*
X112760000Y-92980000D02*
X112760000Y-91650000D01*
M02*
