G04 #@! TF.GenerationSoftware,KiCad,Pcbnew,(5.1.8)-1*
G04 #@! TF.CreationDate,2021-02-24T14:52:37-06:00*
G04 #@! TF.ProjectId,STLINK_Adapter,53544c49-4e4b-45f4-9164-61707465722e,rev?*
G04 #@! TF.SameCoordinates,Original*
G04 #@! TF.FileFunction,Legend,Top*
G04 #@! TF.FilePolarity,Positive*
%FSLAX46Y46*%
G04 Gerber Fmt 4.6, Leading zero omitted, Abs format (unit mm)*
G04 Created by KiCad (PCBNEW (5.1.8)-1) date 2021-02-24 14:52:37*
%MOMM*%
%LPD*%
G01*
G04 APERTURE LIST*
%ADD10C,0.120000*%
%ADD11C,0.150000*%
G04 #@! TA.AperFunction,Profile*
%ADD12C,0.254000*%
G04 #@! TD*
G04 APERTURE END LIST*
D10*
X110160000Y-94250000D02*
X112760000Y-94250000D01*
X110160000Y-91650000D02*
X110160000Y-94250000D01*
X112760000Y-96850000D02*
X112760000Y-107740000D01*
D11*
X89850000Y-98800000D02*
X87240000Y-98800000D01*
D10*
X87240000Y-96850000D02*
X87240000Y-91650000D01*
X112760000Y-96850000D02*
X87240000Y-96850000D01*
X112760000Y-91650000D02*
X112760000Y-96850000D01*
X87240000Y-91650000D02*
X112760000Y-91650000D01*
D11*
X112154761Y-107462023D02*
X112202380Y-107319166D01*
X112202380Y-107081071D01*
X112154761Y-106985833D01*
X112107142Y-106938214D01*
X112011904Y-106890595D01*
X111916666Y-106890595D01*
X111821428Y-106938214D01*
X111773809Y-106985833D01*
X111726190Y-107081071D01*
X111678571Y-107271547D01*
X111630952Y-107366785D01*
X111583333Y-107414404D01*
X111488095Y-107462023D01*
X111392857Y-107462023D01*
X111297619Y-107414404D01*
X111250000Y-107366785D01*
X111202380Y-107271547D01*
X111202380Y-107033452D01*
X111250000Y-106890595D01*
X111202380Y-106604880D02*
X111202380Y-106033452D01*
X112202380Y-106319166D02*
X111202380Y-106319166D01*
X112202380Y-104462023D02*
X112202380Y-104938214D01*
X111202380Y-104938214D01*
X112202380Y-104128690D02*
X111202380Y-104128690D01*
X112202380Y-103652500D02*
X111202380Y-103652500D01*
X112202380Y-103081071D01*
X111202380Y-103081071D01*
X112202380Y-102604880D02*
X111202380Y-102604880D01*
X112202380Y-102033452D02*
X111630952Y-102462023D01*
X111202380Y-102033452D02*
X111773809Y-102604880D01*
X111202380Y-100985833D02*
X112202380Y-100652500D01*
X111202380Y-100319166D01*
X111297619Y-100033452D02*
X111250000Y-99985833D01*
X111202380Y-99890595D01*
X111202380Y-99652500D01*
X111250000Y-99557261D01*
X111297619Y-99509642D01*
X111392857Y-99462023D01*
X111488095Y-99462023D01*
X111630952Y-99509642D01*
X112202380Y-100081071D01*
X112202380Y-99462023D01*
X87833333Y-99857142D02*
X87833333Y-100333333D01*
X87547619Y-99761904D02*
X88547619Y-100095238D01*
X87547619Y-100428571D01*
X87547619Y-101333333D02*
X88023809Y-101000000D01*
X87547619Y-100761904D02*
X88547619Y-100761904D01*
X88547619Y-101142857D01*
X88500000Y-101238095D01*
X88452380Y-101285714D01*
X88357142Y-101333333D01*
X88214285Y-101333333D01*
X88119047Y-101285714D01*
X88071428Y-101238095D01*
X88023809Y-101142857D01*
X88023809Y-100761904D01*
X87547619Y-101761904D02*
X88547619Y-101761904D01*
X87833333Y-102095238D01*
X88547619Y-102428571D01*
X87547619Y-102428571D01*
X87547619Y-104190476D02*
X87547619Y-103619047D01*
X87547619Y-103904761D02*
X88547619Y-103904761D01*
X88404761Y-103809523D01*
X88309523Y-103714285D01*
X88261904Y-103619047D01*
X88547619Y-104809523D02*
X88547619Y-104904761D01*
X88500000Y-105000000D01*
X88452380Y-105047619D01*
X88357142Y-105095238D01*
X88166666Y-105142857D01*
X87928571Y-105142857D01*
X87738095Y-105095238D01*
X87642857Y-105047619D01*
X87595238Y-105000000D01*
X87547619Y-104904761D01*
X87547619Y-104809523D01*
X87595238Y-104714285D01*
X87642857Y-104666666D01*
X87738095Y-104619047D01*
X87928571Y-104571428D01*
X88166666Y-104571428D01*
X88357142Y-104619047D01*
X88452380Y-104666666D01*
X88500000Y-104714285D01*
X88547619Y-104809523D01*
X87547619Y-105571428D02*
X88547619Y-105571428D01*
X88547619Y-105952380D01*
X88500000Y-106047619D01*
X88452380Y-106095238D01*
X88357142Y-106142857D01*
X88214285Y-106142857D01*
X88119047Y-106095238D01*
X88071428Y-106047619D01*
X88023809Y-105952380D01*
X88023809Y-105571428D01*
D12*
X112500000Y-90000000D02*
G75*
G02*
X114000000Y-91500000I0J-1500000D01*
G01*
X114000000Y-108500000D02*
G75*
G02*
X112500000Y-110000000I-1500000J0D01*
G01*
X87500000Y-110000000D02*
G75*
G02*
X86000000Y-108500000I0J1500000D01*
G01*
X87500000Y-110000000D02*
X112500000Y-110000000D01*
X114000000Y-91500000D02*
X114000000Y-108500000D01*
X86000000Y-91500000D02*
X86000000Y-108500000D01*
X86000000Y-91500000D02*
G75*
G02*
X87500000Y-90000000I1500000J0D01*
G01*
X87500000Y-90000000D02*
X112500000Y-90000000D01*
D11*
X110150000Y-98800000D02*
X110150000Y-107740000D01*
X110150000Y-107740000D02*
X89850000Y-107740000D01*
X89850000Y-107740000D02*
X89850000Y-98800000D01*
X89850000Y-98800000D02*
X110150000Y-98800000D01*
X102225000Y-98800000D02*
X102225000Y-100100000D01*
X102225000Y-100100000D02*
X108950000Y-100100000D01*
X108950000Y-100100000D02*
X108950000Y-106440000D01*
X108950000Y-106440000D02*
X91050000Y-106440000D01*
X91050000Y-106440000D02*
X91050000Y-100100000D01*
X91050000Y-100100000D02*
X97775000Y-100100000D01*
X97775000Y-100100000D02*
X97775000Y-98800000D01*
X100250000Y-107740000D02*
X100250000Y-107940000D01*
X100250000Y-107940000D02*
X99750000Y-107940000D01*
X99750000Y-107940000D02*
X99750000Y-107740000D01*
X100250000Y-107840000D02*
X99750000Y-107840000D01*
X92770000Y-107740000D02*
X92770000Y-107940000D01*
X92770000Y-107940000D02*
X92270000Y-107940000D01*
X92270000Y-107940000D02*
X92270000Y-107740000D01*
X92770000Y-107840000D02*
X92270000Y-107840000D01*
X107730000Y-107740000D02*
X107730000Y-107940000D01*
X107730000Y-107940000D02*
X107230000Y-107940000D01*
X107230000Y-107940000D02*
X107230000Y-107740000D01*
X107730000Y-107840000D02*
X107230000Y-107840000D01*
X107280000Y-101400000D02*
X107280000Y-102600000D01*
X107280000Y-102600000D02*
X106680000Y-102000000D01*
X106680000Y-102000000D02*
X107280000Y-101400000D01*
M02*
