G04 #@! TF.GenerationSoftware,KiCad,Pcbnew,(5.1.8)-1*
G04 #@! TF.CreationDate,2021-03-23T12:11:17-05:00*
G04 #@! TF.ProjectId,STLINK_Adapter,53544c49-4e4b-45f4-9164-61707465722e,rev?*
G04 #@! TF.SameCoordinates,Original*
G04 #@! TF.FileFunction,Soldermask,Top*
G04 #@! TF.FilePolarity,Negative*
%FSLAX46Y46*%
G04 Gerber Fmt 4.6, Leading zero omitted, Abs format (unit mm)*
G04 Created by KiCad (PCBNEW (5.1.8)-1) date 2021-03-23 12:11:17*
%MOMM*%
%LPD*%
G01*
G04 APERTURE LIST*
G04 #@! TA.AperFunction,Profile*
%ADD10C,0.254000*%
G04 #@! TD*
%ADD11O,1.700000X1.700000*%
%ADD12R,1.700000X1.700000*%
%ADD13C,1.700000*%
G04 APERTURE END LIST*
D10*
X114500000Y-90000000D02*
G75*
G02*
X116000000Y-91500000I0J-1500000D01*
G01*
X116000000Y-112500000D02*
G75*
G02*
X114500000Y-114000000I-1500000J0D01*
G01*
X85500000Y-114000000D02*
G75*
G02*
X84000000Y-112500000I0J1500000D01*
G01*
X85500000Y-114000000D02*
X114500000Y-114000000D01*
X116000000Y-91500000D02*
X116000000Y-112500000D01*
X84000000Y-91500000D02*
X84000000Y-112500000D01*
X84000000Y-91500000D02*
G75*
G02*
X85500000Y-90000000I1500000J0D01*
G01*
X85500000Y-90000000D02*
X114500000Y-90000000D01*
D11*
X96190000Y-111000000D03*
X98730000Y-111000000D03*
X101270000Y-111000000D03*
D12*
X103810000Y-111000000D03*
D13*
X94920000Y-104540000D03*
X94920000Y-102000000D03*
X97460000Y-104540000D03*
X97460000Y-102000000D03*
X100000000Y-104540000D03*
X100000000Y-102000000D03*
X102540000Y-104540000D03*
X102540000Y-102000000D03*
X105080000Y-104540000D03*
D12*
X105080000Y-102000000D03*
D11*
X88570000Y-95520000D03*
X88570000Y-92980000D03*
X91110000Y-95520000D03*
X91110000Y-92980000D03*
X93650000Y-95520000D03*
X93650000Y-92980000D03*
X96190000Y-95520000D03*
X96190000Y-92980000D03*
X98730000Y-95520000D03*
X98730000Y-92980000D03*
X101270000Y-95520000D03*
X101270000Y-92980000D03*
X103810000Y-95520000D03*
X103810000Y-92980000D03*
X106350000Y-95520000D03*
X106350000Y-92980000D03*
X108890000Y-95520000D03*
X108890000Y-92980000D03*
X111430000Y-95520000D03*
D12*
X111430000Y-92980000D03*
M02*
