M48
; DRILL file {KiCad (5.1.8)-1} date 03/23/21 12:11:20
; FORMAT={-:-/ absolute / inch / decimal}
; #@! TF.CreationDate,2021-03-23T12:11:20-05:00
; #@! TF.GenerationSoftware,Kicad,Pcbnew,(5.1.8)-1
FMAT,2
INCH
T1C0.0157
T2C0.0394
%
G90
G05
T1
X3.3787Y-3.6261
X3.3787Y-3.9017
X3.3787Y-4.1773
X3.4181Y-4.4135
X3.5362Y-4.0198
X3.5756Y-4.256
X3.615Y-3.5868
X3.6543Y-3.8623
X3.6937Y-4.4135
X3.8118Y-4.2167
X3.8512Y-3.9411
X3.8906Y-3.5868
X4.04Y-3.94
X4.1661Y-3.5868
X4.1661Y-3.8623
X4.1661Y-4.3348
X4.2449Y-4.0592
X4.363Y-4.2167
X4.4024Y-3.9017
X4.4417Y-3.5868
X4.4417Y-4.4135
X4.5205Y-4.0592
T2
X3.787Y-4.3701
X3.887Y-4.3701
X3.987Y-4.3701
X4.087Y-4.3701
X3.737Y-4.0157
X3.737Y-4.1157
X3.837Y-4.0157
X3.837Y-4.1157
X3.937Y-4.0157
X3.937Y-4.1157
X4.037Y-4.0157
X4.037Y-4.1157
X4.137Y-4.0157
X4.137Y-4.1157
X3.487Y-3.6606
X3.487Y-3.7606
X3.587Y-3.6606
X3.587Y-3.7606
X3.687Y-3.6606
X3.687Y-3.7606
X3.787Y-3.6606
X3.787Y-3.7606
X3.887Y-3.6606
X3.887Y-3.7606
X3.987Y-3.6606
X3.987Y-3.7606
X4.087Y-3.6606
X4.087Y-3.7606
X4.187Y-3.6606
X4.187Y-3.7606
X4.287Y-3.6606
X4.287Y-3.7606
X4.387Y-3.6606
X4.387Y-3.7606
T0
M30
