G04 #@! TF.GenerationSoftware,KiCad,Pcbnew,(5.1.8)-1*
G04 #@! TF.CreationDate,2021-03-23T12:11:17-05:00*
G04 #@! TF.ProjectId,STLINK_Adapter,53544c49-4e4b-45f4-9164-61707465722e,rev?*
G04 #@! TF.SameCoordinates,Original*
G04 #@! TF.FileFunction,Legend,Bot*
G04 #@! TF.FilePolarity,Positive*
%FSLAX46Y46*%
G04 Gerber Fmt 4.6, Leading zero omitted, Abs format (unit mm)*
G04 Created by KiCad (PCBNEW (5.1.8)-1) date 2021-03-23 12:11:17*
%MOMM*%
%LPD*%
G01*
G04 APERTURE LIST*
%ADD10C,0.150000*%
G04 #@! TA.AperFunction,Profile*
%ADD11C,0.254000*%
G04 #@! TD*
%ADD12C,0.120000*%
G04 APERTURE END LIST*
D10*
X110666666Y-108602380D02*
X110666666Y-107602380D01*
X110428571Y-107602380D01*
X110285714Y-107650000D01*
X110190476Y-107745238D01*
X110142857Y-107840476D01*
X110095238Y-108030952D01*
X110095238Y-108173809D01*
X110142857Y-108364285D01*
X110190476Y-108459523D01*
X110285714Y-108554761D01*
X110428571Y-108602380D01*
X110666666Y-108602380D01*
X109285714Y-108554761D02*
X109380952Y-108602380D01*
X109571428Y-108602380D01*
X109666666Y-108554761D01*
X109714285Y-108459523D01*
X109714285Y-108078571D01*
X109666666Y-107983333D01*
X109571428Y-107935714D01*
X109380952Y-107935714D01*
X109285714Y-107983333D01*
X109238095Y-108078571D01*
X109238095Y-108173809D01*
X109714285Y-108269047D01*
X108857142Y-108554761D02*
X108761904Y-108602380D01*
X108571428Y-108602380D01*
X108476190Y-108554761D01*
X108428571Y-108459523D01*
X108428571Y-108411904D01*
X108476190Y-108316666D01*
X108571428Y-108269047D01*
X108714285Y-108269047D01*
X108809523Y-108221428D01*
X108857142Y-108126190D01*
X108857142Y-108078571D01*
X108809523Y-107983333D01*
X108714285Y-107935714D01*
X108571428Y-107935714D01*
X108476190Y-107983333D01*
X108000000Y-108602380D02*
X108000000Y-107935714D01*
X108000000Y-107602380D02*
X108047619Y-107650000D01*
X108000000Y-107697619D01*
X107952380Y-107650000D01*
X108000000Y-107602380D01*
X108000000Y-107697619D01*
X107095238Y-107935714D02*
X107095238Y-108745238D01*
X107142857Y-108840476D01*
X107190476Y-108888095D01*
X107285714Y-108935714D01*
X107428571Y-108935714D01*
X107523809Y-108888095D01*
X107095238Y-108554761D02*
X107190476Y-108602380D01*
X107380952Y-108602380D01*
X107476190Y-108554761D01*
X107523809Y-108507142D01*
X107571428Y-108411904D01*
X107571428Y-108126190D01*
X107523809Y-108030952D01*
X107476190Y-107983333D01*
X107380952Y-107935714D01*
X107190476Y-107935714D01*
X107095238Y-107983333D01*
X106619047Y-107935714D02*
X106619047Y-108602380D01*
X106619047Y-108030952D02*
X106571428Y-107983333D01*
X106476190Y-107935714D01*
X106333333Y-107935714D01*
X106238095Y-107983333D01*
X106190476Y-108078571D01*
X106190476Y-108602380D01*
X105333333Y-108554761D02*
X105428571Y-108602380D01*
X105619047Y-108602380D01*
X105714285Y-108554761D01*
X105761904Y-108459523D01*
X105761904Y-108078571D01*
X105714285Y-107983333D01*
X105619047Y-107935714D01*
X105428571Y-107935714D01*
X105333333Y-107983333D01*
X105285714Y-108078571D01*
X105285714Y-108173809D01*
X105761904Y-108269047D01*
X104428571Y-108602380D02*
X104428571Y-107602380D01*
X104428571Y-108554761D02*
X104523809Y-108602380D01*
X104714285Y-108602380D01*
X104809523Y-108554761D01*
X104857142Y-108507142D01*
X104904761Y-108411904D01*
X104904761Y-108126190D01*
X104857142Y-108030952D01*
X104809523Y-107983333D01*
X104714285Y-107935714D01*
X104523809Y-107935714D01*
X104428571Y-107983333D01*
X102857142Y-108078571D02*
X102714285Y-108126190D01*
X102666666Y-108173809D01*
X102619047Y-108269047D01*
X102619047Y-108411904D01*
X102666666Y-108507142D01*
X102714285Y-108554761D01*
X102809523Y-108602380D01*
X103190476Y-108602380D01*
X103190476Y-107602380D01*
X102857142Y-107602380D01*
X102761904Y-107650000D01*
X102714285Y-107697619D01*
X102666666Y-107792857D01*
X102666666Y-107888095D01*
X102714285Y-107983333D01*
X102761904Y-108030952D01*
X102857142Y-108078571D01*
X103190476Y-108078571D01*
X102285714Y-107935714D02*
X102047619Y-108602380D01*
X101809523Y-107935714D02*
X102047619Y-108602380D01*
X102142857Y-108840476D01*
X102190476Y-108888095D01*
X102285714Y-108935714D01*
X101428571Y-108507142D02*
X101380952Y-108554761D01*
X101428571Y-108602380D01*
X101476190Y-108554761D01*
X101428571Y-108507142D01*
X101428571Y-108602380D01*
X101428571Y-107983333D02*
X101380952Y-108030952D01*
X101428571Y-108078571D01*
X101476190Y-108030952D01*
X101428571Y-107983333D01*
X101428571Y-108078571D01*
X100190476Y-108602380D02*
X100190476Y-107602380D01*
X99857142Y-108316666D01*
X99523809Y-107602380D01*
X99523809Y-108602380D01*
X99047619Y-108602380D02*
X99047619Y-107935714D01*
X99047619Y-107602380D02*
X99095238Y-107650000D01*
X99047619Y-107697619D01*
X99000000Y-107650000D01*
X99047619Y-107602380D01*
X99047619Y-107697619D01*
X98571428Y-108602380D02*
X98571428Y-107602380D01*
X98476190Y-108221428D02*
X98190476Y-108602380D01*
X98190476Y-107935714D02*
X98571428Y-108316666D01*
X97380952Y-108554761D02*
X97476190Y-108602380D01*
X97666666Y-108602380D01*
X97761904Y-108554761D01*
X97809523Y-108459523D01*
X97809523Y-108078571D01*
X97761904Y-107983333D01*
X97666666Y-107935714D01*
X97476190Y-107935714D01*
X97380952Y-107983333D01*
X97333333Y-108078571D01*
X97333333Y-108173809D01*
X97809523Y-108269047D01*
X96142857Y-108602380D02*
X96142857Y-107602380D01*
X95571428Y-108602380D02*
X96000000Y-108030952D01*
X95571428Y-107602380D02*
X96142857Y-108173809D01*
X94714285Y-107935714D02*
X94714285Y-108602380D01*
X95142857Y-107935714D02*
X95142857Y-108459523D01*
X95095238Y-108554761D01*
X95000000Y-108602380D01*
X94857142Y-108602380D01*
X94761904Y-108554761D01*
X94714285Y-108507142D01*
X94285714Y-108554761D02*
X94190476Y-108602380D01*
X94000000Y-108602380D01*
X93904761Y-108554761D01*
X93857142Y-108459523D01*
X93857142Y-108411904D01*
X93904761Y-108316666D01*
X94000000Y-108269047D01*
X94142857Y-108269047D01*
X94238095Y-108221428D01*
X94285714Y-108126190D01*
X94285714Y-108078571D01*
X94238095Y-107983333D01*
X94142857Y-107935714D01*
X94000000Y-107935714D01*
X93904761Y-107983333D01*
X93428571Y-108602380D02*
X93428571Y-107602380D01*
X93000000Y-108602380D02*
X93000000Y-108078571D01*
X93047619Y-107983333D01*
X93142857Y-107935714D01*
X93285714Y-107935714D01*
X93380952Y-107983333D01*
X93428571Y-108030952D01*
X92523809Y-107935714D02*
X92523809Y-108602380D01*
X92523809Y-108030952D02*
X92476190Y-107983333D01*
X92380952Y-107935714D01*
X92238095Y-107935714D01*
X92142857Y-107983333D01*
X92095238Y-108078571D01*
X92095238Y-108602380D01*
X91238095Y-108554761D02*
X91333333Y-108602380D01*
X91523809Y-108602380D01*
X91619047Y-108554761D01*
X91666666Y-108459523D01*
X91666666Y-108078571D01*
X91619047Y-107983333D01*
X91523809Y-107935714D01*
X91333333Y-107935714D01*
X91238095Y-107983333D01*
X91190476Y-108078571D01*
X91190476Y-108173809D01*
X91666666Y-108269047D01*
X90761904Y-108602380D02*
X90761904Y-107935714D01*
X90761904Y-108126190D02*
X90714285Y-108030952D01*
X90666666Y-107983333D01*
X90571428Y-107935714D01*
X90476190Y-107935714D01*
X90142857Y-108602380D02*
X90142857Y-107935714D01*
X90142857Y-107602380D02*
X90190476Y-107650000D01*
X90142857Y-107697619D01*
X90095238Y-107650000D01*
X90142857Y-107602380D01*
X90142857Y-107697619D01*
X89666666Y-108602380D02*
X89666666Y-107602380D01*
X89571428Y-108221428D02*
X89285714Y-108602380D01*
X89285714Y-107935714D02*
X89666666Y-108316666D01*
X104619047Y-98452380D02*
X104619047Y-99166666D01*
X104666666Y-99309523D01*
X104761904Y-99404761D01*
X104904761Y-99452380D01*
X105000000Y-99452380D01*
X103666666Y-99452380D02*
X104142857Y-99452380D01*
X104142857Y-98452380D01*
X102761904Y-99357142D02*
X102809523Y-99404761D01*
X102952380Y-99452380D01*
X103047619Y-99452380D01*
X103190476Y-99404761D01*
X103285714Y-99309523D01*
X103333333Y-99214285D01*
X103380952Y-99023809D01*
X103380952Y-98880952D01*
X103333333Y-98690476D01*
X103285714Y-98595238D01*
X103190476Y-98500000D01*
X103047619Y-98452380D01*
X102952380Y-98452380D01*
X102809523Y-98500000D01*
X102761904Y-98547619D01*
X102047619Y-98452380D02*
X102047619Y-99166666D01*
X102095238Y-99309523D01*
X102190476Y-99404761D01*
X102333333Y-99452380D01*
X102428571Y-99452380D01*
X101095238Y-99452380D02*
X101571428Y-99452380D01*
X101571428Y-98452380D01*
X100190476Y-99357142D02*
X100238095Y-99404761D01*
X100380952Y-99452380D01*
X100476190Y-99452380D01*
X100619047Y-99404761D01*
X100714285Y-99309523D01*
X100761904Y-99214285D01*
X100809523Y-99023809D01*
X100809523Y-98880952D01*
X100761904Y-98690476D01*
X100714285Y-98595238D01*
X100619047Y-98500000D01*
X100476190Y-98452380D01*
X100380952Y-98452380D01*
X100238095Y-98500000D01*
X100190476Y-98547619D01*
X99476190Y-98452380D02*
X99476190Y-99166666D01*
X99523809Y-99309523D01*
X99619047Y-99404761D01*
X99761904Y-99452380D01*
X99857142Y-99452380D01*
X98523809Y-99452380D02*
X99000000Y-99452380D01*
X99000000Y-98452380D01*
X97619047Y-99357142D02*
X97666666Y-99404761D01*
X97809523Y-99452380D01*
X97904761Y-99452380D01*
X98047619Y-99404761D01*
X98142857Y-99309523D01*
X98190476Y-99214285D01*
X98238095Y-99023809D01*
X98238095Y-98880952D01*
X98190476Y-98690476D01*
X98142857Y-98595238D01*
X98047619Y-98500000D01*
X97904761Y-98452380D01*
X97809523Y-98452380D01*
X97666666Y-98500000D01*
X97619047Y-98547619D01*
X96904761Y-98452380D02*
X96904761Y-99166666D01*
X96952380Y-99309523D01*
X97047619Y-99404761D01*
X97190476Y-99452380D01*
X97285714Y-99452380D01*
X95952380Y-99452380D02*
X96428571Y-99452380D01*
X96428571Y-98452380D01*
X95047619Y-99357142D02*
X95095238Y-99404761D01*
X95238095Y-99452380D01*
X95333333Y-99452380D01*
X95476190Y-99404761D01*
X95571428Y-99309523D01*
X95619047Y-99214285D01*
X95666666Y-99023809D01*
X95666666Y-98880952D01*
X95619047Y-98690476D01*
X95571428Y-98595238D01*
X95476190Y-98500000D01*
X95333333Y-98452380D01*
X95238095Y-98452380D01*
X95095238Y-98500000D01*
X95047619Y-98547619D01*
D11*
X114500000Y-90000000D02*
G75*
G02*
X116000000Y-91500000I0J-1500000D01*
G01*
X116000000Y-112500000D02*
G75*
G02*
X114500000Y-114000000I-1500000J0D01*
G01*
X85500000Y-114000000D02*
G75*
G02*
X84000000Y-112500000I0J1500000D01*
G01*
X85500000Y-114000000D02*
X114500000Y-114000000D01*
X116000000Y-91500000D02*
X116000000Y-112500000D01*
X84000000Y-91500000D02*
X84000000Y-112500000D01*
X84000000Y-91500000D02*
G75*
G02*
X85500000Y-90000000I1500000J0D01*
G01*
X85500000Y-90000000D02*
X114500000Y-90000000D01*
D12*
X112760000Y-92980000D02*
X112760000Y-91650000D01*
X112760000Y-91650000D02*
X111430000Y-91650000D01*
X112760000Y-94250000D02*
X110160000Y-94250000D01*
X110160000Y-94250000D02*
X110160000Y-91650000D01*
X110160000Y-91650000D02*
X87240000Y-91650000D01*
X87240000Y-96850000D02*
X87240000Y-91650000D01*
X112760000Y-96850000D02*
X87240000Y-96850000D01*
X112760000Y-96850000D02*
X112760000Y-94250000D01*
M02*
