G04 #@! TF.GenerationSoftware,KiCad,Pcbnew,(5.1.8)-1*
G04 #@! TF.CreationDate,2021-03-23T12:11:17-05:00*
G04 #@! TF.ProjectId,STLINK_Adapter,53544c49-4e4b-45f4-9164-61707465722e,rev?*
G04 #@! TF.SameCoordinates,Original*
G04 #@! TF.FileFunction,Copper,L1,Top*
G04 #@! TF.FilePolarity,Positive*
%FSLAX46Y46*%
G04 Gerber Fmt 4.6, Leading zero omitted, Abs format (unit mm)*
G04 Created by KiCad (PCBNEW (5.1.8)-1) date 2021-03-23 12:11:17*
%MOMM*%
%LPD*%
G01*
G04 APERTURE LIST*
G04 #@! TA.AperFunction,Profile*
%ADD10C,0.254000*%
G04 #@! TD*
G04 #@! TA.AperFunction,ComponentPad*
%ADD11O,1.700000X1.700000*%
G04 #@! TD*
G04 #@! TA.AperFunction,ComponentPad*
%ADD12R,1.700000X1.700000*%
G04 #@! TD*
G04 #@! TA.AperFunction,ComponentPad*
%ADD13C,1.700000*%
G04 #@! TD*
G04 #@! TA.AperFunction,ViaPad*
%ADD14C,0.800000*%
G04 #@! TD*
G04 #@! TA.AperFunction,Conductor*
%ADD15C,0.381000*%
G04 #@! TD*
G04 #@! TA.AperFunction,Conductor*
%ADD16C,0.127000*%
G04 #@! TD*
G04 #@! TA.AperFunction,Conductor*
%ADD17C,0.150000*%
G04 #@! TD*
G04 #@! TA.AperFunction,Conductor*
%ADD18C,0.025400*%
G04 #@! TD*
G04 APERTURE END LIST*
D10*
X114500000Y-90000000D02*
G75*
G02*
X116000000Y-91500000I0J-1500000D01*
G01*
X116000000Y-112500000D02*
G75*
G02*
X114500000Y-114000000I-1500000J0D01*
G01*
X85500000Y-114000000D02*
G75*
G02*
X84000000Y-112500000I0J1500000D01*
G01*
X85500000Y-114000000D02*
X114500000Y-114000000D01*
X116000000Y-91500000D02*
X116000000Y-112500000D01*
X84000000Y-91500000D02*
X84000000Y-112500000D01*
X84000000Y-91500000D02*
G75*
G02*
X85500000Y-90000000I1500000J0D01*
G01*
X85500000Y-90000000D02*
X114500000Y-90000000D01*
D11*
X96190000Y-111000000D03*
X98730000Y-111000000D03*
X101270000Y-111000000D03*
D12*
X103810000Y-111000000D03*
D13*
X94920000Y-104540000D03*
X94920000Y-102000000D03*
X97460000Y-104540000D03*
X97460000Y-102000000D03*
X100000000Y-104540000D03*
X100000000Y-102000000D03*
X102540000Y-104540000D03*
X102540000Y-102000000D03*
X105080000Y-104540000D03*
D12*
X105080000Y-102000000D03*
D11*
X88570000Y-95520000D03*
X88570000Y-92980000D03*
X91110000Y-95520000D03*
X91110000Y-92980000D03*
X93650000Y-95520000D03*
X93650000Y-92980000D03*
X96190000Y-95520000D03*
X96190000Y-92980000D03*
X98730000Y-95520000D03*
X98730000Y-92980000D03*
X101270000Y-95520000D03*
X101270000Y-92980000D03*
X103810000Y-95520000D03*
X103810000Y-92980000D03*
X106350000Y-95520000D03*
X106350000Y-92980000D03*
X108890000Y-95520000D03*
X108890000Y-92980000D03*
X111430000Y-95520000D03*
D12*
X111430000Y-92980000D03*
D14*
X85820000Y-92103572D03*
X85820000Y-99103572D03*
X85820000Y-106103572D03*
X86820000Y-112103572D03*
X89820000Y-102103572D03*
X90820000Y-108103572D03*
X91820000Y-91103572D03*
X92820000Y-98103572D03*
X93820000Y-112103572D03*
X96820000Y-107103572D03*
X97820000Y-100103572D03*
X98820000Y-91103572D03*
X105820000Y-91103572D03*
X105820000Y-98103572D03*
X105820000Y-110103572D03*
X107820000Y-103103572D03*
X110820000Y-107103572D03*
X111820000Y-99103572D03*
X112820000Y-91103572D03*
X112820000Y-112103572D03*
X114820000Y-103103572D03*
X102616000Y-100076000D03*
D15*
X94919800Y-94249800D02*
X93650000Y-92980000D01*
X94919800Y-96085742D02*
X94919800Y-94249800D01*
X96189800Y-97355742D02*
X94919800Y-96085742D01*
X96189800Y-103270200D02*
X96189800Y-97355742D01*
X94920000Y-104540000D02*
X96189800Y-103270200D01*
X97459800Y-94249800D02*
X96190000Y-92980000D01*
X97459800Y-96085742D02*
X97459800Y-94249800D01*
X98729800Y-97355742D02*
X97459800Y-96085742D01*
X98729800Y-103269800D02*
X98729800Y-97355742D01*
X100000000Y-104540000D02*
X98729800Y-103269800D01*
X102539800Y-94249800D02*
X101270000Y-92980000D01*
X102539800Y-96086142D02*
X102539800Y-94249800D01*
X101269800Y-97356142D02*
X102539800Y-96086142D01*
X101269800Y-103269800D02*
X101269800Y-97356142D01*
X102540000Y-104540000D02*
X101269800Y-103269800D01*
X105079800Y-94250200D02*
X106350000Y-92980000D01*
X105079800Y-96086142D02*
X105079800Y-94250200D01*
X103809800Y-97356142D02*
X105079800Y-96086142D01*
X103809800Y-105165140D02*
X103809800Y-97356142D01*
X103194439Y-105780501D02*
X103809800Y-105165140D01*
X98700501Y-105780501D02*
X103194439Y-105780501D01*
X97460000Y-104540000D02*
X98700501Y-105780501D01*
X111430000Y-97231000D02*
X111430000Y-95520000D01*
X109905800Y-98755200D02*
X111430000Y-97231000D01*
X106857800Y-98755200D02*
X109905800Y-98755200D01*
X105080000Y-100533000D02*
X106857800Y-98755200D01*
X105080000Y-102000000D02*
X105080000Y-100533000D01*
X111430000Y-95520000D02*
X111430000Y-92980000D01*
X106934000Y-103854000D02*
X105080000Y-102000000D01*
X106934000Y-106578400D02*
X106934000Y-103854000D01*
X103810000Y-109702400D02*
X106934000Y-106578400D01*
X103810000Y-111000000D02*
X103810000Y-109702400D01*
X105080000Y-105892400D02*
X105080000Y-104540000D01*
X101270000Y-109702400D02*
X105080000Y-105892400D01*
X101270000Y-111000000D02*
X101270000Y-109702400D01*
D16*
X114705383Y-90462750D02*
X114902941Y-90522397D01*
X115085147Y-90619278D01*
X115245072Y-90749709D01*
X115376613Y-90908716D01*
X115474768Y-91090248D01*
X115535791Y-91287381D01*
X115559500Y-91512965D01*
X115559501Y-112478443D01*
X115537250Y-112705383D01*
X115477604Y-112902939D01*
X115380722Y-113085147D01*
X115250291Y-113245072D01*
X115091284Y-113376613D01*
X114909753Y-113474767D01*
X114712619Y-113535791D01*
X114487035Y-113559500D01*
X85521547Y-113559500D01*
X85294617Y-113537250D01*
X85097061Y-113477604D01*
X84914853Y-113380722D01*
X84754928Y-113250291D01*
X84623387Y-113091284D01*
X84525233Y-112909753D01*
X84464209Y-112712619D01*
X84440500Y-112487035D01*
X84440500Y-111306361D01*
X95067552Y-111306361D01*
X95148888Y-111519453D01*
X95270233Y-111712583D01*
X95426924Y-111878329D01*
X95612940Y-112010321D01*
X95821132Y-112103487D01*
X95883640Y-112122442D01*
X96063000Y-112077668D01*
X96063000Y-111127000D01*
X96317000Y-111127000D01*
X96317000Y-112077668D01*
X96496360Y-112122442D01*
X96558868Y-112103487D01*
X96767060Y-112010321D01*
X96953076Y-111878329D01*
X97109767Y-111712583D01*
X97231112Y-111519453D01*
X97312448Y-111306361D01*
X97268179Y-111127000D01*
X96317000Y-111127000D01*
X96063000Y-111127000D01*
X95111821Y-111127000D01*
X95067552Y-111306361D01*
X84440500Y-111306361D01*
X84440500Y-110885405D01*
X97566500Y-110885405D01*
X97566500Y-111114595D01*
X97611212Y-111339381D01*
X97698919Y-111551124D01*
X97826250Y-111741688D01*
X97988312Y-111903750D01*
X98178876Y-112031081D01*
X98390619Y-112118788D01*
X98615405Y-112163500D01*
X98844595Y-112163500D01*
X99069381Y-112118788D01*
X99281124Y-112031081D01*
X99471688Y-111903750D01*
X99633750Y-111741688D01*
X99761081Y-111551124D01*
X99848788Y-111339381D01*
X99893500Y-111114595D01*
X99893500Y-110885405D01*
X99848788Y-110660619D01*
X99761081Y-110448876D01*
X99633750Y-110258312D01*
X99471688Y-110096250D01*
X99281124Y-109968919D01*
X99069381Y-109881212D01*
X98844595Y-109836500D01*
X98615405Y-109836500D01*
X98390619Y-109881212D01*
X98178876Y-109968919D01*
X97988312Y-110096250D01*
X97826250Y-110258312D01*
X97698919Y-110448876D01*
X97611212Y-110660619D01*
X97566500Y-110885405D01*
X84440500Y-110885405D01*
X84440500Y-110693639D01*
X95067552Y-110693639D01*
X95111821Y-110873000D01*
X96063000Y-110873000D01*
X96063000Y-109922332D01*
X96317000Y-109922332D01*
X96317000Y-110873000D01*
X97268179Y-110873000D01*
X97312448Y-110693639D01*
X97231112Y-110480547D01*
X97109767Y-110287417D01*
X96953076Y-110121671D01*
X96767060Y-109989679D01*
X96558868Y-109896513D01*
X96496360Y-109877558D01*
X96317000Y-109922332D01*
X96063000Y-109922332D01*
X95883640Y-109877558D01*
X95821132Y-109896513D01*
X95612940Y-109989679D01*
X95426924Y-110121671D01*
X95270233Y-110287417D01*
X95148888Y-110480547D01*
X95067552Y-110693639D01*
X84440500Y-110693639D01*
X84440500Y-102081273D01*
X93753698Y-102081273D01*
X93791964Y-102307246D01*
X93873580Y-102521412D01*
X93905102Y-102580386D01*
X94064163Y-102676232D01*
X94740395Y-102000000D01*
X94064163Y-101323768D01*
X93905102Y-101419614D01*
X93811376Y-101628763D01*
X93760253Y-101852178D01*
X93753698Y-102081273D01*
X84440500Y-102081273D01*
X84440500Y-95826361D01*
X87447552Y-95826361D01*
X87528888Y-96039453D01*
X87650233Y-96232583D01*
X87806924Y-96398329D01*
X87992940Y-96530321D01*
X88201132Y-96623487D01*
X88263640Y-96642442D01*
X88443000Y-96597668D01*
X88443000Y-95647000D01*
X88697000Y-95647000D01*
X88697000Y-96597668D01*
X88876360Y-96642442D01*
X88938868Y-96623487D01*
X89147060Y-96530321D01*
X89333076Y-96398329D01*
X89489767Y-96232583D01*
X89611112Y-96039453D01*
X89692448Y-95826361D01*
X89987552Y-95826361D01*
X90068888Y-96039453D01*
X90190233Y-96232583D01*
X90346924Y-96398329D01*
X90532940Y-96530321D01*
X90741132Y-96623487D01*
X90803640Y-96642442D01*
X90983000Y-96597668D01*
X90983000Y-95647000D01*
X91237000Y-95647000D01*
X91237000Y-96597668D01*
X91416360Y-96642442D01*
X91478868Y-96623487D01*
X91687060Y-96530321D01*
X91873076Y-96398329D01*
X92029767Y-96232583D01*
X92151112Y-96039453D01*
X92232448Y-95826361D01*
X92527552Y-95826361D01*
X92608888Y-96039453D01*
X92730233Y-96232583D01*
X92886924Y-96398329D01*
X93072940Y-96530321D01*
X93281132Y-96623487D01*
X93343640Y-96642442D01*
X93523000Y-96597668D01*
X93523000Y-95647000D01*
X92571821Y-95647000D01*
X92527552Y-95826361D01*
X92232448Y-95826361D01*
X92188179Y-95647000D01*
X91237000Y-95647000D01*
X90983000Y-95647000D01*
X90031821Y-95647000D01*
X89987552Y-95826361D01*
X89692448Y-95826361D01*
X89648179Y-95647000D01*
X88697000Y-95647000D01*
X88443000Y-95647000D01*
X87491821Y-95647000D01*
X87447552Y-95826361D01*
X84440500Y-95826361D01*
X84440500Y-95213639D01*
X87447552Y-95213639D01*
X87491821Y-95393000D01*
X88443000Y-95393000D01*
X88443000Y-94442332D01*
X88697000Y-94442332D01*
X88697000Y-95393000D01*
X89648179Y-95393000D01*
X89692448Y-95213639D01*
X89987552Y-95213639D01*
X90031821Y-95393000D01*
X90983000Y-95393000D01*
X90983000Y-94442332D01*
X91237000Y-94442332D01*
X91237000Y-95393000D01*
X92188179Y-95393000D01*
X92232448Y-95213639D01*
X92527552Y-95213639D01*
X92571821Y-95393000D01*
X93523000Y-95393000D01*
X93523000Y-94442332D01*
X93343640Y-94397558D01*
X93281132Y-94416513D01*
X93072940Y-94509679D01*
X92886924Y-94641671D01*
X92730233Y-94807417D01*
X92608888Y-95000547D01*
X92527552Y-95213639D01*
X92232448Y-95213639D01*
X92151112Y-95000547D01*
X92029767Y-94807417D01*
X91873076Y-94641671D01*
X91687060Y-94509679D01*
X91478868Y-94416513D01*
X91416360Y-94397558D01*
X91237000Y-94442332D01*
X90983000Y-94442332D01*
X90803640Y-94397558D01*
X90741132Y-94416513D01*
X90532940Y-94509679D01*
X90346924Y-94641671D01*
X90190233Y-94807417D01*
X90068888Y-95000547D01*
X89987552Y-95213639D01*
X89692448Y-95213639D01*
X89611112Y-95000547D01*
X89489767Y-94807417D01*
X89333076Y-94641671D01*
X89147060Y-94509679D01*
X88938868Y-94416513D01*
X88876360Y-94397558D01*
X88697000Y-94442332D01*
X88443000Y-94442332D01*
X88263640Y-94397558D01*
X88201132Y-94416513D01*
X87992940Y-94509679D01*
X87806924Y-94641671D01*
X87650233Y-94807417D01*
X87528888Y-95000547D01*
X87447552Y-95213639D01*
X84440500Y-95213639D01*
X84440500Y-92865405D01*
X87406500Y-92865405D01*
X87406500Y-93094595D01*
X87451212Y-93319381D01*
X87538919Y-93531124D01*
X87666250Y-93721688D01*
X87828312Y-93883750D01*
X88018876Y-94011081D01*
X88230619Y-94098788D01*
X88455405Y-94143500D01*
X88684595Y-94143500D01*
X88909381Y-94098788D01*
X89121124Y-94011081D01*
X89311688Y-93883750D01*
X89473750Y-93721688D01*
X89601081Y-93531124D01*
X89688788Y-93319381D01*
X89733500Y-93094595D01*
X89733500Y-92865405D01*
X89946500Y-92865405D01*
X89946500Y-93094595D01*
X89991212Y-93319381D01*
X90078919Y-93531124D01*
X90206250Y-93721688D01*
X90368312Y-93883750D01*
X90558876Y-94011081D01*
X90770619Y-94098788D01*
X90995405Y-94143500D01*
X91224595Y-94143500D01*
X91449381Y-94098788D01*
X91661124Y-94011081D01*
X91851688Y-93883750D01*
X92013750Y-93721688D01*
X92141081Y-93531124D01*
X92228788Y-93319381D01*
X92273500Y-93094595D01*
X92273500Y-92865405D01*
X92486500Y-92865405D01*
X92486500Y-93094595D01*
X92531212Y-93319381D01*
X92618919Y-93531124D01*
X92746250Y-93721688D01*
X92908312Y-93883750D01*
X93098876Y-94011081D01*
X93310619Y-94098788D01*
X93372937Y-94111184D01*
X93447452Y-94133852D01*
X93469593Y-94139713D01*
X93619756Y-94173646D01*
X93635846Y-94176842D01*
X93772273Y-94200248D01*
X93777691Y-94201128D01*
X93899714Y-94219870D01*
X94003622Y-94238866D01*
X94091984Y-94262190D01*
X94174531Y-94294599D01*
X94262779Y-94343640D01*
X94365882Y-94419477D01*
X94415801Y-94465160D01*
X94415801Y-94644553D01*
X94413076Y-94641671D01*
X94227060Y-94509679D01*
X94018868Y-94416513D01*
X93956360Y-94397558D01*
X93777000Y-94442332D01*
X93777000Y-95393000D01*
X93797000Y-95393000D01*
X93797000Y-95647000D01*
X93777000Y-95647000D01*
X93777000Y-96597668D01*
X93956360Y-96642442D01*
X94018868Y-96623487D01*
X94227060Y-96530321D01*
X94413076Y-96398329D01*
X94478444Y-96329184D01*
X94498712Y-96367104D01*
X94561694Y-96443848D01*
X94580927Y-96459632D01*
X95685801Y-97564507D01*
X95685800Y-101112836D01*
X95656678Y-101083714D01*
X95596231Y-101144161D01*
X95500386Y-100985102D01*
X95291237Y-100891376D01*
X95067822Y-100840253D01*
X94838727Y-100833698D01*
X94612754Y-100871964D01*
X94398588Y-100953580D01*
X94339614Y-100985102D01*
X94243768Y-101144163D01*
X94920000Y-101820395D01*
X94934143Y-101806253D01*
X95113748Y-101985858D01*
X95099605Y-102000000D01*
X95113748Y-102014143D01*
X94934143Y-102193748D01*
X94920000Y-102179605D01*
X94243768Y-102855837D01*
X94339614Y-103014898D01*
X94548763Y-103108624D01*
X94772178Y-103159747D01*
X95001273Y-103166302D01*
X95227246Y-103128036D01*
X95441412Y-103046420D01*
X95500386Y-103014898D01*
X95596231Y-102855839D01*
X95656678Y-102916286D01*
X95685800Y-102887164D01*
X95685800Y-103054839D01*
X95635877Y-103100525D01*
X95532779Y-103176359D01*
X95444531Y-103225400D01*
X95361984Y-103257809D01*
X95273622Y-103281133D01*
X95169714Y-103300129D01*
X95047691Y-103318871D01*
X95042273Y-103319751D01*
X94905846Y-103343157D01*
X94889756Y-103346353D01*
X94739593Y-103380286D01*
X94717451Y-103386148D01*
X94642938Y-103408816D01*
X94580619Y-103421212D01*
X94368876Y-103508919D01*
X94178312Y-103636250D01*
X94016250Y-103798312D01*
X93888919Y-103988876D01*
X93801212Y-104200619D01*
X93756500Y-104425405D01*
X93756500Y-104654595D01*
X93801212Y-104879381D01*
X93888919Y-105091124D01*
X94016250Y-105281688D01*
X94178312Y-105443750D01*
X94368876Y-105571081D01*
X94580619Y-105658788D01*
X94805405Y-105703500D01*
X95034595Y-105703500D01*
X95259381Y-105658788D01*
X95471124Y-105571081D01*
X95661688Y-105443750D01*
X95823750Y-105281688D01*
X95951081Y-105091124D01*
X96038788Y-104879381D01*
X96051184Y-104817059D01*
X96073852Y-104742546D01*
X96079713Y-104720406D01*
X96113646Y-104570243D01*
X96116842Y-104554153D01*
X96140248Y-104417726D01*
X96141128Y-104412308D01*
X96159870Y-104290285D01*
X96178866Y-104186377D01*
X96202190Y-104098015D01*
X96234599Y-104015468D01*
X96283640Y-103927220D01*
X96359477Y-103824117D01*
X96476294Y-103696470D01*
X96528678Y-103644086D01*
X96547906Y-103628306D01*
X96610888Y-103551562D01*
X96657688Y-103464005D01*
X96686507Y-103369001D01*
X96693800Y-103294954D01*
X96693800Y-103294952D01*
X96696238Y-103270201D01*
X96693800Y-103245450D01*
X96693800Y-102879238D01*
X96718312Y-102903750D01*
X96908876Y-103031081D01*
X97120619Y-103118788D01*
X97345405Y-103163500D01*
X97574595Y-103163500D01*
X97799381Y-103118788D01*
X98011124Y-103031081D01*
X98201688Y-102903750D01*
X98225800Y-102879638D01*
X98225800Y-103245046D01*
X98223362Y-103269800D01*
X98233093Y-103368601D01*
X98233215Y-103369002D01*
X98261912Y-103463604D01*
X98308712Y-103551162D01*
X98371694Y-103627906D01*
X98390927Y-103643690D01*
X98443696Y-103696459D01*
X98560522Y-103824117D01*
X98636359Y-103927220D01*
X98685400Y-104015468D01*
X98717809Y-104098015D01*
X98741133Y-104186377D01*
X98760129Y-104290285D01*
X98778871Y-104412308D01*
X98779751Y-104417726D01*
X98803157Y-104554153D01*
X98806353Y-104570243D01*
X98840286Y-104720406D01*
X98846148Y-104742548D01*
X98868816Y-104817060D01*
X98881212Y-104879381D01*
X98968919Y-105091124D01*
X99092784Y-105276501D01*
X98918346Y-105276501D01*
X98899477Y-105255882D01*
X98823640Y-105152779D01*
X98774599Y-105064531D01*
X98742190Y-104981984D01*
X98718866Y-104893622D01*
X98699870Y-104789714D01*
X98681128Y-104667691D01*
X98680248Y-104662273D01*
X98656842Y-104525846D01*
X98653646Y-104509756D01*
X98619713Y-104359593D01*
X98613852Y-104337452D01*
X98591184Y-104262937D01*
X98578788Y-104200619D01*
X98491081Y-103988876D01*
X98363750Y-103798312D01*
X98201688Y-103636250D01*
X98011124Y-103508919D01*
X97799381Y-103421212D01*
X97574595Y-103376500D01*
X97345405Y-103376500D01*
X97120619Y-103421212D01*
X96908876Y-103508919D01*
X96718312Y-103636250D01*
X96556250Y-103798312D01*
X96428919Y-103988876D01*
X96341212Y-104200619D01*
X96296500Y-104425405D01*
X96296500Y-104654595D01*
X96341212Y-104879381D01*
X96428919Y-105091124D01*
X96556250Y-105281688D01*
X96718312Y-105443750D01*
X96908876Y-105571081D01*
X97120619Y-105658788D01*
X97182937Y-105671184D01*
X97257452Y-105693852D01*
X97279593Y-105699713D01*
X97429756Y-105733646D01*
X97445846Y-105736842D01*
X97582273Y-105760248D01*
X97587691Y-105761128D01*
X97709714Y-105779870D01*
X97813622Y-105798866D01*
X97901984Y-105822190D01*
X97984531Y-105854599D01*
X98072779Y-105903640D01*
X98175882Y-105979477D01*
X98303531Y-106096295D01*
X98326615Y-106119379D01*
X98342395Y-106138607D01*
X98419139Y-106201589D01*
X98506696Y-106248389D01*
X98601700Y-106277208D01*
X98675747Y-106284501D01*
X98675749Y-106284501D01*
X98700500Y-106286939D01*
X98725251Y-106284501D01*
X103169685Y-106284501D01*
X103194439Y-106286939D01*
X103293240Y-106277208D01*
X103293243Y-106277207D01*
X103388244Y-106248389D01*
X103475801Y-106201589D01*
X103552545Y-106138607D01*
X103568329Y-106119374D01*
X104148678Y-105539026D01*
X104167906Y-105523246D01*
X104230888Y-105446502D01*
X104262008Y-105388280D01*
X104333641Y-105472532D01*
X104336399Y-105475732D01*
X104422682Y-105574487D01*
X104486585Y-105654546D01*
X104519259Y-105707416D01*
X104523200Y-105718939D01*
X104520459Y-105725804D01*
X104465784Y-105793853D01*
X100931123Y-109328514D01*
X100911895Y-109344294D01*
X100896115Y-109363522D01*
X100848913Y-109421038D01*
X100831873Y-109452918D01*
X100788840Y-109503112D01*
X100778747Y-109515511D01*
X100690103Y-109630264D01*
X100679248Y-109645206D01*
X100603542Y-109756148D01*
X100593693Y-109771525D01*
X100525980Y-109884345D01*
X100518601Y-109897332D01*
X100453939Y-110017717D01*
X100449496Y-110026302D01*
X100382940Y-110159941D01*
X100381047Y-110163809D01*
X100307655Y-110316391D01*
X100307613Y-110316478D01*
X100256948Y-110421894D01*
X100238919Y-110448876D01*
X100151212Y-110660619D01*
X100106500Y-110885405D01*
X100106500Y-111114595D01*
X100151212Y-111339381D01*
X100238919Y-111551124D01*
X100366250Y-111741688D01*
X100528312Y-111903750D01*
X100718876Y-112031081D01*
X100930619Y-112118788D01*
X101155405Y-112163500D01*
X101384595Y-112163500D01*
X101609381Y-112118788D01*
X101821124Y-112031081D01*
X102011688Y-111903750D01*
X102173750Y-111741688D01*
X102301081Y-111551124D01*
X102388788Y-111339381D01*
X102433500Y-111114595D01*
X102433500Y-110885405D01*
X102388788Y-110660619D01*
X102301081Y-110448876D01*
X102244135Y-110363651D01*
X102234503Y-110346802D01*
X102216680Y-110319111D01*
X102185003Y-110275153D01*
X102173750Y-110258312D01*
X102170589Y-110255151D01*
X102132532Y-110202340D01*
X102121681Y-110188153D01*
X102033526Y-110079454D01*
X102032090Y-110077696D01*
X101952403Y-109980881D01*
X101895057Y-109903622D01*
X101866821Y-109853559D01*
X101863231Y-109841460D01*
X101867960Y-109830130D01*
X101922617Y-109762546D01*
X105418873Y-106266290D01*
X105438106Y-106250506D01*
X105501088Y-106173762D01*
X105521398Y-106135765D01*
X105596223Y-106043351D01*
X105607902Y-106027983D01*
X105691452Y-105910712D01*
X105702844Y-105893556D01*
X105773108Y-105779805D01*
X105782364Y-105763781D01*
X105844673Y-105648162D01*
X105850690Y-105636411D01*
X105910376Y-105513536D01*
X105913154Y-105507663D01*
X105975546Y-105372142D01*
X105975734Y-105371734D01*
X106045368Y-105219910D01*
X106094832Y-105115443D01*
X106111081Y-105091124D01*
X106198788Y-104879381D01*
X106243500Y-104654595D01*
X106243500Y-104425405D01*
X106198788Y-104200619D01*
X106111081Y-103988876D01*
X105983750Y-103798312D01*
X105821688Y-103636250D01*
X105631124Y-103508919D01*
X105419381Y-103421212D01*
X105194595Y-103376500D01*
X104965405Y-103376500D01*
X104740619Y-103421212D01*
X104528876Y-103508919D01*
X104338312Y-103636250D01*
X104313800Y-103660762D01*
X104313800Y-103165016D01*
X104923060Y-103165016D01*
X105049756Y-103193646D01*
X105065846Y-103196842D01*
X105202273Y-103220248D01*
X105207691Y-103221128D01*
X105329714Y-103239870D01*
X105433622Y-103258866D01*
X105521984Y-103282190D01*
X105604531Y-103314599D01*
X105692779Y-103363640D01*
X105795882Y-103439477D01*
X105923535Y-103556298D01*
X106430001Y-104062765D01*
X106430000Y-106369636D01*
X103471123Y-109328514D01*
X103451895Y-109344294D01*
X103436115Y-109363522D01*
X103388913Y-109421038D01*
X103371873Y-109452918D01*
X103328840Y-109503112D01*
X103318747Y-109515511D01*
X103230103Y-109630264D01*
X103219248Y-109645206D01*
X103143542Y-109756148D01*
X103133693Y-109771525D01*
X103095606Y-109834984D01*
X102960000Y-109834984D01*
X102898543Y-109841037D01*
X102839449Y-109858963D01*
X102784986Y-109888074D01*
X102737250Y-109927250D01*
X102698074Y-109974986D01*
X102668963Y-110029449D01*
X102651037Y-110088543D01*
X102644984Y-110150000D01*
X102644984Y-111850000D01*
X102651037Y-111911457D01*
X102668963Y-111970551D01*
X102698074Y-112025014D01*
X102737250Y-112072750D01*
X102784986Y-112111926D01*
X102839449Y-112141037D01*
X102898543Y-112158963D01*
X102960000Y-112165016D01*
X104660000Y-112165016D01*
X104721457Y-112158963D01*
X104780551Y-112141037D01*
X104835014Y-112111926D01*
X104882750Y-112072750D01*
X104921926Y-112025014D01*
X104951037Y-111970551D01*
X104968963Y-111911457D01*
X104975016Y-111850000D01*
X104975016Y-110150000D01*
X104968963Y-110088543D01*
X104951037Y-110029449D01*
X104921926Y-109974986D01*
X104882750Y-109927250D01*
X104835014Y-109888074D01*
X104780551Y-109858963D01*
X104721457Y-109841037D01*
X104660000Y-109834984D01*
X104405934Y-109834984D01*
X104407960Y-109830130D01*
X104462616Y-109762547D01*
X107272878Y-106952286D01*
X107292106Y-106936506D01*
X107355088Y-106859762D01*
X107401888Y-106772205D01*
X107430707Y-106677201D01*
X107438000Y-106603154D01*
X107438000Y-106603153D01*
X107440438Y-106578401D01*
X107438000Y-106553647D01*
X107438000Y-103878754D01*
X107440438Y-103854000D01*
X107430707Y-103755198D01*
X107411337Y-103691344D01*
X107401888Y-103660195D01*
X107355088Y-103572638D01*
X107292106Y-103495894D01*
X107272878Y-103480114D01*
X106636298Y-102843535D01*
X106519477Y-102715882D01*
X106443640Y-102612779D01*
X106394599Y-102524531D01*
X106362190Y-102441984D01*
X106338866Y-102353622D01*
X106319870Y-102249714D01*
X106301128Y-102127691D01*
X106300248Y-102122273D01*
X106276842Y-101985846D01*
X106273646Y-101969756D01*
X106245016Y-101843060D01*
X106245016Y-101150000D01*
X106238963Y-101088543D01*
X106221037Y-101029449D01*
X106191926Y-100974986D01*
X106152750Y-100927250D01*
X106105014Y-100888074D01*
X106050551Y-100858963D01*
X105991457Y-100841037D01*
X105930000Y-100834984D01*
X105596035Y-100834984D01*
X105584000Y-100818474D01*
X105584000Y-100749508D01*
X105613829Y-100711934D01*
X107066564Y-99259200D01*
X109881046Y-99259200D01*
X109905800Y-99261638D01*
X110004601Y-99251907D01*
X110099605Y-99223088D01*
X110187162Y-99176288D01*
X110263906Y-99113306D01*
X110279690Y-99094073D01*
X111768878Y-97604886D01*
X111788106Y-97589106D01*
X111851088Y-97512362D01*
X111897888Y-97424805D01*
X111926707Y-97329801D01*
X111934000Y-97255754D01*
X111934000Y-97255752D01*
X111936438Y-97231001D01*
X111934327Y-97209568D01*
X111941659Y-97044064D01*
X111960937Y-96917548D01*
X111988665Y-96820454D01*
X112024110Y-96739183D01*
X112070106Y-96660197D01*
X112130140Y-96573303D01*
X112203176Y-96473760D01*
X112206384Y-96469307D01*
X112286302Y-96356288D01*
X112295420Y-96342650D01*
X112377607Y-96212474D01*
X112389118Y-96192675D01*
X112425779Y-96123958D01*
X112461081Y-96071124D01*
X112548788Y-95859381D01*
X112593500Y-95634595D01*
X112593500Y-95405405D01*
X112548788Y-95180619D01*
X112461081Y-94968876D01*
X112425777Y-94916040D01*
X112389118Y-94847325D01*
X112377607Y-94827525D01*
X112295420Y-94697349D01*
X112286302Y-94683711D01*
X112206384Y-94570692D01*
X112203176Y-94566239D01*
X112130140Y-94466696D01*
X112070106Y-94379802D01*
X112024110Y-94300816D01*
X112001947Y-94250000D01*
X112024110Y-94199183D01*
X112055653Y-94145016D01*
X112280000Y-94145016D01*
X112341457Y-94138963D01*
X112400551Y-94121037D01*
X112455014Y-94091926D01*
X112502750Y-94052750D01*
X112541926Y-94005014D01*
X112571037Y-93950551D01*
X112588963Y-93891457D01*
X112595016Y-93830000D01*
X112595016Y-92130000D01*
X112588963Y-92068543D01*
X112571037Y-92009449D01*
X112541926Y-91954986D01*
X112502750Y-91907250D01*
X112455014Y-91868074D01*
X112400551Y-91838963D01*
X112341457Y-91821037D01*
X112280000Y-91814984D01*
X110580000Y-91814984D01*
X110518543Y-91821037D01*
X110459449Y-91838963D01*
X110404986Y-91868074D01*
X110357250Y-91907250D01*
X110318074Y-91954986D01*
X110288963Y-92009449D01*
X110271037Y-92068543D01*
X110264984Y-92130000D01*
X110264984Y-93830000D01*
X110271037Y-93891457D01*
X110288963Y-93950551D01*
X110318074Y-94005014D01*
X110357250Y-94052750D01*
X110404986Y-94091926D01*
X110459449Y-94121037D01*
X110518543Y-94138963D01*
X110580000Y-94145016D01*
X110804346Y-94145016D01*
X110835889Y-94199183D01*
X110858052Y-94250000D01*
X110835889Y-94300816D01*
X110789893Y-94379802D01*
X110729859Y-94466696D01*
X110656823Y-94566239D01*
X110653615Y-94570692D01*
X110573697Y-94683711D01*
X110564579Y-94697349D01*
X110482392Y-94827525D01*
X110470880Y-94847326D01*
X110434218Y-94916048D01*
X110398919Y-94968876D01*
X110311212Y-95180619D01*
X110266500Y-95405405D01*
X110266500Y-95634595D01*
X110311212Y-95859381D01*
X110398919Y-96071124D01*
X110434221Y-96123958D01*
X110470881Y-96192674D01*
X110482392Y-96212474D01*
X110564579Y-96342650D01*
X110573697Y-96356288D01*
X110653615Y-96469307D01*
X110656823Y-96473760D01*
X110729859Y-96573303D01*
X110789893Y-96660197D01*
X110835889Y-96739183D01*
X110871334Y-96820454D01*
X110899062Y-96917548D01*
X110916467Y-97031769D01*
X109697037Y-98251200D01*
X106882554Y-98251200D01*
X106857800Y-98248762D01*
X106758998Y-98258493D01*
X106730179Y-98267235D01*
X106663995Y-98287312D01*
X106576438Y-98334112D01*
X106499694Y-98397094D01*
X106483914Y-98416322D01*
X104741123Y-100159114D01*
X104721895Y-100174894D01*
X104706115Y-100194122D01*
X104658913Y-100251638D01*
X104642787Y-100281808D01*
X104598141Y-100335147D01*
X104583517Y-100354037D01*
X104490462Y-100484192D01*
X104476068Y-100506225D01*
X104403247Y-100628618D01*
X104391363Y-100650529D01*
X104332605Y-100769968D01*
X104324803Y-100787108D01*
X104313800Y-100813344D01*
X104313800Y-97564905D01*
X105418678Y-96460028D01*
X105437906Y-96444248D01*
X105500888Y-96367504D01*
X105521438Y-96329058D01*
X105586924Y-96398329D01*
X105772940Y-96530321D01*
X105981132Y-96623487D01*
X106043640Y-96642442D01*
X106223000Y-96597668D01*
X106223000Y-95647000D01*
X106477000Y-95647000D01*
X106477000Y-96597668D01*
X106656360Y-96642442D01*
X106718868Y-96623487D01*
X106927060Y-96530321D01*
X107113076Y-96398329D01*
X107269767Y-96232583D01*
X107391112Y-96039453D01*
X107472448Y-95826361D01*
X107767552Y-95826361D01*
X107848888Y-96039453D01*
X107970233Y-96232583D01*
X108126924Y-96398329D01*
X108312940Y-96530321D01*
X108521132Y-96623487D01*
X108583640Y-96642442D01*
X108763000Y-96597668D01*
X108763000Y-95647000D01*
X109017000Y-95647000D01*
X109017000Y-96597668D01*
X109196360Y-96642442D01*
X109258868Y-96623487D01*
X109467060Y-96530321D01*
X109653076Y-96398329D01*
X109809767Y-96232583D01*
X109931112Y-96039453D01*
X110012448Y-95826361D01*
X109968179Y-95647000D01*
X109017000Y-95647000D01*
X108763000Y-95647000D01*
X107811821Y-95647000D01*
X107767552Y-95826361D01*
X107472448Y-95826361D01*
X107428179Y-95647000D01*
X106477000Y-95647000D01*
X106223000Y-95647000D01*
X106203000Y-95647000D01*
X106203000Y-95393000D01*
X106223000Y-95393000D01*
X106223000Y-94442332D01*
X106477000Y-94442332D01*
X106477000Y-95393000D01*
X107428179Y-95393000D01*
X107472448Y-95213639D01*
X107767552Y-95213639D01*
X107811821Y-95393000D01*
X108763000Y-95393000D01*
X108763000Y-94442332D01*
X109017000Y-94442332D01*
X109017000Y-95393000D01*
X109968179Y-95393000D01*
X110012448Y-95213639D01*
X109931112Y-95000547D01*
X109809767Y-94807417D01*
X109653076Y-94641671D01*
X109467060Y-94509679D01*
X109258868Y-94416513D01*
X109196360Y-94397558D01*
X109017000Y-94442332D01*
X108763000Y-94442332D01*
X108583640Y-94397558D01*
X108521132Y-94416513D01*
X108312940Y-94509679D01*
X108126924Y-94641671D01*
X107970233Y-94807417D01*
X107848888Y-95000547D01*
X107767552Y-95213639D01*
X107472448Y-95213639D01*
X107391112Y-95000547D01*
X107269767Y-94807417D01*
X107113076Y-94641671D01*
X106927060Y-94509679D01*
X106718868Y-94416513D01*
X106656360Y-94397558D01*
X106477000Y-94442332D01*
X106223000Y-94442332D01*
X106043640Y-94397558D01*
X105981132Y-94416513D01*
X105772940Y-94509679D01*
X105586924Y-94641671D01*
X105583800Y-94644976D01*
X105583800Y-94465525D01*
X105634117Y-94419477D01*
X105737220Y-94343640D01*
X105825468Y-94294599D01*
X105908015Y-94262190D01*
X105996377Y-94238866D01*
X106100285Y-94219870D01*
X106222308Y-94201128D01*
X106227726Y-94200248D01*
X106364153Y-94176842D01*
X106380243Y-94173646D01*
X106530406Y-94139713D01*
X106552546Y-94133852D01*
X106627059Y-94111184D01*
X106689381Y-94098788D01*
X106901124Y-94011081D01*
X107091688Y-93883750D01*
X107253750Y-93721688D01*
X107381081Y-93531124D01*
X107468788Y-93319381D01*
X107513500Y-93094595D01*
X107513500Y-92865405D01*
X107726500Y-92865405D01*
X107726500Y-93094595D01*
X107771212Y-93319381D01*
X107858919Y-93531124D01*
X107986250Y-93721688D01*
X108148312Y-93883750D01*
X108338876Y-94011081D01*
X108550619Y-94098788D01*
X108775405Y-94143500D01*
X109004595Y-94143500D01*
X109229381Y-94098788D01*
X109441124Y-94011081D01*
X109631688Y-93883750D01*
X109793750Y-93721688D01*
X109921081Y-93531124D01*
X110008788Y-93319381D01*
X110053500Y-93094595D01*
X110053500Y-92865405D01*
X110008788Y-92640619D01*
X109921081Y-92428876D01*
X109793750Y-92238312D01*
X109631688Y-92076250D01*
X109441124Y-91948919D01*
X109229381Y-91861212D01*
X109004595Y-91816500D01*
X108775405Y-91816500D01*
X108550619Y-91861212D01*
X108338876Y-91948919D01*
X108148312Y-92076250D01*
X107986250Y-92238312D01*
X107858919Y-92428876D01*
X107771212Y-92640619D01*
X107726500Y-92865405D01*
X107513500Y-92865405D01*
X107468788Y-92640619D01*
X107381081Y-92428876D01*
X107253750Y-92238312D01*
X107091688Y-92076250D01*
X106901124Y-91948919D01*
X106689381Y-91861212D01*
X106464595Y-91816500D01*
X106235405Y-91816500D01*
X106010619Y-91861212D01*
X105798876Y-91948919D01*
X105608312Y-92076250D01*
X105446250Y-92238312D01*
X105318919Y-92428876D01*
X105231212Y-92640619D01*
X105218816Y-92702938D01*
X105196148Y-92777451D01*
X105190286Y-92799593D01*
X105156353Y-92949756D01*
X105153157Y-92965846D01*
X105129751Y-93102273D01*
X105128871Y-93107691D01*
X105110129Y-93229714D01*
X105091133Y-93333622D01*
X105067809Y-93421984D01*
X105035400Y-93504531D01*
X104986359Y-93592779D01*
X104910525Y-93695877D01*
X104793683Y-93823554D01*
X104740923Y-93876314D01*
X104721695Y-93892094D01*
X104705915Y-93911322D01*
X104658713Y-93968838D01*
X104611913Y-94056395D01*
X104583093Y-94151399D01*
X104573362Y-94250200D01*
X104575801Y-94274963D01*
X104575801Y-94644553D01*
X104573076Y-94641671D01*
X104387060Y-94509679D01*
X104178868Y-94416513D01*
X104116360Y-94397558D01*
X103937000Y-94442332D01*
X103937000Y-95393000D01*
X103957000Y-95393000D01*
X103957000Y-95647000D01*
X103937000Y-95647000D01*
X103937000Y-95667000D01*
X103683000Y-95667000D01*
X103683000Y-95647000D01*
X103663000Y-95647000D01*
X103663000Y-95393000D01*
X103683000Y-95393000D01*
X103683000Y-94442332D01*
X103503640Y-94397558D01*
X103441132Y-94416513D01*
X103232940Y-94509679D01*
X103046924Y-94641671D01*
X103043800Y-94644976D01*
X103043800Y-94274550D01*
X103046238Y-94249799D01*
X103041444Y-94201128D01*
X103036507Y-94150999D01*
X103007688Y-94055995D01*
X102960888Y-93968438D01*
X102897906Y-93891694D01*
X102878678Y-93875914D01*
X102826295Y-93823531D01*
X102709477Y-93695882D01*
X102633640Y-93592779D01*
X102584599Y-93504531D01*
X102552190Y-93421984D01*
X102528866Y-93333622D01*
X102509870Y-93229714D01*
X102491128Y-93107691D01*
X102490248Y-93102273D01*
X102466842Y-92965846D01*
X102463646Y-92949756D01*
X102444585Y-92865405D01*
X102646500Y-92865405D01*
X102646500Y-93094595D01*
X102691212Y-93319381D01*
X102778919Y-93531124D01*
X102906250Y-93721688D01*
X103068312Y-93883750D01*
X103258876Y-94011081D01*
X103470619Y-94098788D01*
X103695405Y-94143500D01*
X103924595Y-94143500D01*
X104149381Y-94098788D01*
X104361124Y-94011081D01*
X104551688Y-93883750D01*
X104713750Y-93721688D01*
X104841081Y-93531124D01*
X104928788Y-93319381D01*
X104973500Y-93094595D01*
X104973500Y-92865405D01*
X104928788Y-92640619D01*
X104841081Y-92428876D01*
X104713750Y-92238312D01*
X104551688Y-92076250D01*
X104361124Y-91948919D01*
X104149381Y-91861212D01*
X103924595Y-91816500D01*
X103695405Y-91816500D01*
X103470619Y-91861212D01*
X103258876Y-91948919D01*
X103068312Y-92076250D01*
X102906250Y-92238312D01*
X102778919Y-92428876D01*
X102691212Y-92640619D01*
X102646500Y-92865405D01*
X102444585Y-92865405D01*
X102429713Y-92799593D01*
X102423852Y-92777452D01*
X102401184Y-92702937D01*
X102388788Y-92640619D01*
X102301081Y-92428876D01*
X102173750Y-92238312D01*
X102011688Y-92076250D01*
X101821124Y-91948919D01*
X101609381Y-91861212D01*
X101384595Y-91816500D01*
X101155405Y-91816500D01*
X100930619Y-91861212D01*
X100718876Y-91948919D01*
X100528312Y-92076250D01*
X100366250Y-92238312D01*
X100238919Y-92428876D01*
X100151212Y-92640619D01*
X100106500Y-92865405D01*
X100106500Y-93094595D01*
X100151212Y-93319381D01*
X100238919Y-93531124D01*
X100366250Y-93721688D01*
X100528312Y-93883750D01*
X100718876Y-94011081D01*
X100930619Y-94098788D01*
X100992937Y-94111184D01*
X101067452Y-94133852D01*
X101089593Y-94139713D01*
X101239756Y-94173646D01*
X101255846Y-94176842D01*
X101392273Y-94200248D01*
X101397691Y-94201128D01*
X101519714Y-94219870D01*
X101623622Y-94238866D01*
X101711984Y-94262190D01*
X101794531Y-94294599D01*
X101882779Y-94343640D01*
X101985882Y-94419477D01*
X102035801Y-94465160D01*
X102035801Y-94644553D01*
X102033076Y-94641671D01*
X101847060Y-94509679D01*
X101638868Y-94416513D01*
X101576360Y-94397558D01*
X101397000Y-94442332D01*
X101397000Y-95393000D01*
X101417000Y-95393000D01*
X101417000Y-95647000D01*
X101397000Y-95647000D01*
X101397000Y-95667000D01*
X101143000Y-95667000D01*
X101143000Y-95647000D01*
X100191821Y-95647000D01*
X100147552Y-95826361D01*
X100228888Y-96039453D01*
X100350233Y-96232583D01*
X100506924Y-96398329D01*
X100692940Y-96530321D01*
X100901132Y-96623487D01*
X100963640Y-96642442D01*
X101142998Y-96597668D01*
X101142998Y-96683500D01*
X101229679Y-96683500D01*
X100930923Y-96982256D01*
X100911695Y-96998036D01*
X100895915Y-97017264D01*
X100848713Y-97074780D01*
X100801913Y-97162337D01*
X100773093Y-97257341D01*
X100763362Y-97356142D01*
X100765801Y-97380906D01*
X100765800Y-101112836D01*
X100736678Y-101083714D01*
X100676231Y-101144161D01*
X100580386Y-100985102D01*
X100371237Y-100891376D01*
X100147822Y-100840253D01*
X99918727Y-100833698D01*
X99692754Y-100871964D01*
X99478588Y-100953580D01*
X99419614Y-100985102D01*
X99323769Y-101144161D01*
X99263322Y-101083714D01*
X99233800Y-101113236D01*
X99233800Y-97380492D01*
X99236238Y-97355741D01*
X99233683Y-97329800D01*
X99226507Y-97256941D01*
X99197688Y-97161937D01*
X99150888Y-97074380D01*
X99087906Y-96997636D01*
X99068678Y-96981856D01*
X98770322Y-96683500D01*
X98857002Y-96683500D01*
X98857002Y-96597668D01*
X99036360Y-96642442D01*
X99098868Y-96623487D01*
X99307060Y-96530321D01*
X99493076Y-96398329D01*
X99649767Y-96232583D01*
X99771112Y-96039453D01*
X99852448Y-95826361D01*
X99808179Y-95647000D01*
X98857000Y-95647000D01*
X98857000Y-95667000D01*
X98603000Y-95667000D01*
X98603000Y-95647000D01*
X98583000Y-95647000D01*
X98583000Y-95393000D01*
X98603000Y-95393000D01*
X98603000Y-94442332D01*
X98857000Y-94442332D01*
X98857000Y-95393000D01*
X99808179Y-95393000D01*
X99852448Y-95213639D01*
X100147552Y-95213639D01*
X100191821Y-95393000D01*
X101143000Y-95393000D01*
X101143000Y-94442332D01*
X100963640Y-94397558D01*
X100901132Y-94416513D01*
X100692940Y-94509679D01*
X100506924Y-94641671D01*
X100350233Y-94807417D01*
X100228888Y-95000547D01*
X100147552Y-95213639D01*
X99852448Y-95213639D01*
X99771112Y-95000547D01*
X99649767Y-94807417D01*
X99493076Y-94641671D01*
X99307060Y-94509679D01*
X99098868Y-94416513D01*
X99036360Y-94397558D01*
X98857000Y-94442332D01*
X98603000Y-94442332D01*
X98423640Y-94397558D01*
X98361132Y-94416513D01*
X98152940Y-94509679D01*
X97966924Y-94641671D01*
X97963800Y-94644976D01*
X97963800Y-94274550D01*
X97966238Y-94249799D01*
X97961444Y-94201128D01*
X97956507Y-94150999D01*
X97927688Y-94055995D01*
X97880888Y-93968438D01*
X97817906Y-93891694D01*
X97798678Y-93875914D01*
X97746295Y-93823531D01*
X97629477Y-93695882D01*
X97553640Y-93592779D01*
X97504599Y-93504531D01*
X97472190Y-93421984D01*
X97448866Y-93333622D01*
X97429870Y-93229714D01*
X97411128Y-93107691D01*
X97410248Y-93102273D01*
X97386842Y-92965846D01*
X97383646Y-92949756D01*
X97364585Y-92865405D01*
X97566500Y-92865405D01*
X97566500Y-93094595D01*
X97611212Y-93319381D01*
X97698919Y-93531124D01*
X97826250Y-93721688D01*
X97988312Y-93883750D01*
X98178876Y-94011081D01*
X98390619Y-94098788D01*
X98615405Y-94143500D01*
X98844595Y-94143500D01*
X99069381Y-94098788D01*
X99281124Y-94011081D01*
X99471688Y-93883750D01*
X99633750Y-93721688D01*
X99761081Y-93531124D01*
X99848788Y-93319381D01*
X99893500Y-93094595D01*
X99893500Y-92865405D01*
X99848788Y-92640619D01*
X99761081Y-92428876D01*
X99633750Y-92238312D01*
X99471688Y-92076250D01*
X99281124Y-91948919D01*
X99069381Y-91861212D01*
X98844595Y-91816500D01*
X98615405Y-91816500D01*
X98390619Y-91861212D01*
X98178876Y-91948919D01*
X97988312Y-92076250D01*
X97826250Y-92238312D01*
X97698919Y-92428876D01*
X97611212Y-92640619D01*
X97566500Y-92865405D01*
X97364585Y-92865405D01*
X97349713Y-92799593D01*
X97343852Y-92777452D01*
X97321184Y-92702937D01*
X97308788Y-92640619D01*
X97221081Y-92428876D01*
X97093750Y-92238312D01*
X96931688Y-92076250D01*
X96741124Y-91948919D01*
X96529381Y-91861212D01*
X96304595Y-91816500D01*
X96075405Y-91816500D01*
X95850619Y-91861212D01*
X95638876Y-91948919D01*
X95448312Y-92076250D01*
X95286250Y-92238312D01*
X95158919Y-92428876D01*
X95071212Y-92640619D01*
X95026500Y-92865405D01*
X95026500Y-93094595D01*
X95071212Y-93319381D01*
X95158919Y-93531124D01*
X95286250Y-93721688D01*
X95448312Y-93883750D01*
X95638876Y-94011081D01*
X95850619Y-94098788D01*
X95912937Y-94111184D01*
X95987452Y-94133852D01*
X96009593Y-94139713D01*
X96159756Y-94173646D01*
X96175846Y-94176842D01*
X96312273Y-94200248D01*
X96317691Y-94201128D01*
X96439714Y-94219870D01*
X96543622Y-94238866D01*
X96631984Y-94262190D01*
X96714531Y-94294599D01*
X96802779Y-94343640D01*
X96905882Y-94419477D01*
X96955801Y-94465160D01*
X96955801Y-94644553D01*
X96953076Y-94641671D01*
X96767060Y-94509679D01*
X96558868Y-94416513D01*
X96496360Y-94397558D01*
X96317000Y-94442332D01*
X96317000Y-95393000D01*
X96337000Y-95393000D01*
X96337000Y-95647000D01*
X96317000Y-95647000D01*
X96317000Y-95667000D01*
X96063000Y-95667000D01*
X96063000Y-95647000D01*
X96043000Y-95647000D01*
X96043000Y-95393000D01*
X96063000Y-95393000D01*
X96063000Y-94442332D01*
X95883640Y-94397558D01*
X95821132Y-94416513D01*
X95612940Y-94509679D01*
X95426924Y-94641671D01*
X95423800Y-94644976D01*
X95423800Y-94274550D01*
X95426238Y-94249799D01*
X95421444Y-94201128D01*
X95416507Y-94150999D01*
X95387688Y-94055995D01*
X95340888Y-93968438D01*
X95277906Y-93891694D01*
X95258678Y-93875914D01*
X95206295Y-93823531D01*
X95089477Y-93695882D01*
X95013640Y-93592779D01*
X94964599Y-93504531D01*
X94932190Y-93421984D01*
X94908866Y-93333622D01*
X94889870Y-93229714D01*
X94871128Y-93107691D01*
X94870248Y-93102273D01*
X94846842Y-92965846D01*
X94843646Y-92949756D01*
X94809713Y-92799593D01*
X94803852Y-92777452D01*
X94781184Y-92702937D01*
X94768788Y-92640619D01*
X94681081Y-92428876D01*
X94553750Y-92238312D01*
X94391688Y-92076250D01*
X94201124Y-91948919D01*
X93989381Y-91861212D01*
X93764595Y-91816500D01*
X93535405Y-91816500D01*
X93310619Y-91861212D01*
X93098876Y-91948919D01*
X92908312Y-92076250D01*
X92746250Y-92238312D01*
X92618919Y-92428876D01*
X92531212Y-92640619D01*
X92486500Y-92865405D01*
X92273500Y-92865405D01*
X92228788Y-92640619D01*
X92141081Y-92428876D01*
X92013750Y-92238312D01*
X91851688Y-92076250D01*
X91661124Y-91948919D01*
X91449381Y-91861212D01*
X91224595Y-91816500D01*
X90995405Y-91816500D01*
X90770619Y-91861212D01*
X90558876Y-91948919D01*
X90368312Y-92076250D01*
X90206250Y-92238312D01*
X90078919Y-92428876D01*
X89991212Y-92640619D01*
X89946500Y-92865405D01*
X89733500Y-92865405D01*
X89688788Y-92640619D01*
X89601081Y-92428876D01*
X89473750Y-92238312D01*
X89311688Y-92076250D01*
X89121124Y-91948919D01*
X88909381Y-91861212D01*
X88684595Y-91816500D01*
X88455405Y-91816500D01*
X88230619Y-91861212D01*
X88018876Y-91948919D01*
X87828312Y-92076250D01*
X87666250Y-92238312D01*
X87538919Y-92428876D01*
X87451212Y-92640619D01*
X87406500Y-92865405D01*
X84440500Y-92865405D01*
X84440500Y-91521547D01*
X84462750Y-91294617D01*
X84522397Y-91097059D01*
X84619278Y-90914853D01*
X84749709Y-90754928D01*
X84908716Y-90623387D01*
X85090248Y-90525232D01*
X85287381Y-90464209D01*
X85512965Y-90440500D01*
X114478453Y-90440500D01*
X114705383Y-90462750D01*
G04 #@! TA.AperFunction,Conductor*
D17*
G36*
X114705383Y-90462750D02*
G01*
X114902941Y-90522397D01*
X115085147Y-90619278D01*
X115245072Y-90749709D01*
X115376613Y-90908716D01*
X115474768Y-91090248D01*
X115535791Y-91287381D01*
X115559500Y-91512965D01*
X115559501Y-112478443D01*
X115537250Y-112705383D01*
X115477604Y-112902939D01*
X115380722Y-113085147D01*
X115250291Y-113245072D01*
X115091284Y-113376613D01*
X114909753Y-113474767D01*
X114712619Y-113535791D01*
X114487035Y-113559500D01*
X85521547Y-113559500D01*
X85294617Y-113537250D01*
X85097061Y-113477604D01*
X84914853Y-113380722D01*
X84754928Y-113250291D01*
X84623387Y-113091284D01*
X84525233Y-112909753D01*
X84464209Y-112712619D01*
X84440500Y-112487035D01*
X84440500Y-111306361D01*
X95067552Y-111306361D01*
X95148888Y-111519453D01*
X95270233Y-111712583D01*
X95426924Y-111878329D01*
X95612940Y-112010321D01*
X95821132Y-112103487D01*
X95883640Y-112122442D01*
X96063000Y-112077668D01*
X96063000Y-111127000D01*
X96317000Y-111127000D01*
X96317000Y-112077668D01*
X96496360Y-112122442D01*
X96558868Y-112103487D01*
X96767060Y-112010321D01*
X96953076Y-111878329D01*
X97109767Y-111712583D01*
X97231112Y-111519453D01*
X97312448Y-111306361D01*
X97268179Y-111127000D01*
X96317000Y-111127000D01*
X96063000Y-111127000D01*
X95111821Y-111127000D01*
X95067552Y-111306361D01*
X84440500Y-111306361D01*
X84440500Y-110885405D01*
X97566500Y-110885405D01*
X97566500Y-111114595D01*
X97611212Y-111339381D01*
X97698919Y-111551124D01*
X97826250Y-111741688D01*
X97988312Y-111903750D01*
X98178876Y-112031081D01*
X98390619Y-112118788D01*
X98615405Y-112163500D01*
X98844595Y-112163500D01*
X99069381Y-112118788D01*
X99281124Y-112031081D01*
X99471688Y-111903750D01*
X99633750Y-111741688D01*
X99761081Y-111551124D01*
X99848788Y-111339381D01*
X99893500Y-111114595D01*
X99893500Y-110885405D01*
X99848788Y-110660619D01*
X99761081Y-110448876D01*
X99633750Y-110258312D01*
X99471688Y-110096250D01*
X99281124Y-109968919D01*
X99069381Y-109881212D01*
X98844595Y-109836500D01*
X98615405Y-109836500D01*
X98390619Y-109881212D01*
X98178876Y-109968919D01*
X97988312Y-110096250D01*
X97826250Y-110258312D01*
X97698919Y-110448876D01*
X97611212Y-110660619D01*
X97566500Y-110885405D01*
X84440500Y-110885405D01*
X84440500Y-110693639D01*
X95067552Y-110693639D01*
X95111821Y-110873000D01*
X96063000Y-110873000D01*
X96063000Y-109922332D01*
X96317000Y-109922332D01*
X96317000Y-110873000D01*
X97268179Y-110873000D01*
X97312448Y-110693639D01*
X97231112Y-110480547D01*
X97109767Y-110287417D01*
X96953076Y-110121671D01*
X96767060Y-109989679D01*
X96558868Y-109896513D01*
X96496360Y-109877558D01*
X96317000Y-109922332D01*
X96063000Y-109922332D01*
X95883640Y-109877558D01*
X95821132Y-109896513D01*
X95612940Y-109989679D01*
X95426924Y-110121671D01*
X95270233Y-110287417D01*
X95148888Y-110480547D01*
X95067552Y-110693639D01*
X84440500Y-110693639D01*
X84440500Y-102081273D01*
X93753698Y-102081273D01*
X93791964Y-102307246D01*
X93873580Y-102521412D01*
X93905102Y-102580386D01*
X94064163Y-102676232D01*
X94740395Y-102000000D01*
X94064163Y-101323768D01*
X93905102Y-101419614D01*
X93811376Y-101628763D01*
X93760253Y-101852178D01*
X93753698Y-102081273D01*
X84440500Y-102081273D01*
X84440500Y-95826361D01*
X87447552Y-95826361D01*
X87528888Y-96039453D01*
X87650233Y-96232583D01*
X87806924Y-96398329D01*
X87992940Y-96530321D01*
X88201132Y-96623487D01*
X88263640Y-96642442D01*
X88443000Y-96597668D01*
X88443000Y-95647000D01*
X88697000Y-95647000D01*
X88697000Y-96597668D01*
X88876360Y-96642442D01*
X88938868Y-96623487D01*
X89147060Y-96530321D01*
X89333076Y-96398329D01*
X89489767Y-96232583D01*
X89611112Y-96039453D01*
X89692448Y-95826361D01*
X89987552Y-95826361D01*
X90068888Y-96039453D01*
X90190233Y-96232583D01*
X90346924Y-96398329D01*
X90532940Y-96530321D01*
X90741132Y-96623487D01*
X90803640Y-96642442D01*
X90983000Y-96597668D01*
X90983000Y-95647000D01*
X91237000Y-95647000D01*
X91237000Y-96597668D01*
X91416360Y-96642442D01*
X91478868Y-96623487D01*
X91687060Y-96530321D01*
X91873076Y-96398329D01*
X92029767Y-96232583D01*
X92151112Y-96039453D01*
X92232448Y-95826361D01*
X92527552Y-95826361D01*
X92608888Y-96039453D01*
X92730233Y-96232583D01*
X92886924Y-96398329D01*
X93072940Y-96530321D01*
X93281132Y-96623487D01*
X93343640Y-96642442D01*
X93523000Y-96597668D01*
X93523000Y-95647000D01*
X92571821Y-95647000D01*
X92527552Y-95826361D01*
X92232448Y-95826361D01*
X92188179Y-95647000D01*
X91237000Y-95647000D01*
X90983000Y-95647000D01*
X90031821Y-95647000D01*
X89987552Y-95826361D01*
X89692448Y-95826361D01*
X89648179Y-95647000D01*
X88697000Y-95647000D01*
X88443000Y-95647000D01*
X87491821Y-95647000D01*
X87447552Y-95826361D01*
X84440500Y-95826361D01*
X84440500Y-95213639D01*
X87447552Y-95213639D01*
X87491821Y-95393000D01*
X88443000Y-95393000D01*
X88443000Y-94442332D01*
X88697000Y-94442332D01*
X88697000Y-95393000D01*
X89648179Y-95393000D01*
X89692448Y-95213639D01*
X89987552Y-95213639D01*
X90031821Y-95393000D01*
X90983000Y-95393000D01*
X90983000Y-94442332D01*
X91237000Y-94442332D01*
X91237000Y-95393000D01*
X92188179Y-95393000D01*
X92232448Y-95213639D01*
X92527552Y-95213639D01*
X92571821Y-95393000D01*
X93523000Y-95393000D01*
X93523000Y-94442332D01*
X93343640Y-94397558D01*
X93281132Y-94416513D01*
X93072940Y-94509679D01*
X92886924Y-94641671D01*
X92730233Y-94807417D01*
X92608888Y-95000547D01*
X92527552Y-95213639D01*
X92232448Y-95213639D01*
X92151112Y-95000547D01*
X92029767Y-94807417D01*
X91873076Y-94641671D01*
X91687060Y-94509679D01*
X91478868Y-94416513D01*
X91416360Y-94397558D01*
X91237000Y-94442332D01*
X90983000Y-94442332D01*
X90803640Y-94397558D01*
X90741132Y-94416513D01*
X90532940Y-94509679D01*
X90346924Y-94641671D01*
X90190233Y-94807417D01*
X90068888Y-95000547D01*
X89987552Y-95213639D01*
X89692448Y-95213639D01*
X89611112Y-95000547D01*
X89489767Y-94807417D01*
X89333076Y-94641671D01*
X89147060Y-94509679D01*
X88938868Y-94416513D01*
X88876360Y-94397558D01*
X88697000Y-94442332D01*
X88443000Y-94442332D01*
X88263640Y-94397558D01*
X88201132Y-94416513D01*
X87992940Y-94509679D01*
X87806924Y-94641671D01*
X87650233Y-94807417D01*
X87528888Y-95000547D01*
X87447552Y-95213639D01*
X84440500Y-95213639D01*
X84440500Y-92865405D01*
X87406500Y-92865405D01*
X87406500Y-93094595D01*
X87451212Y-93319381D01*
X87538919Y-93531124D01*
X87666250Y-93721688D01*
X87828312Y-93883750D01*
X88018876Y-94011081D01*
X88230619Y-94098788D01*
X88455405Y-94143500D01*
X88684595Y-94143500D01*
X88909381Y-94098788D01*
X89121124Y-94011081D01*
X89311688Y-93883750D01*
X89473750Y-93721688D01*
X89601081Y-93531124D01*
X89688788Y-93319381D01*
X89733500Y-93094595D01*
X89733500Y-92865405D01*
X89946500Y-92865405D01*
X89946500Y-93094595D01*
X89991212Y-93319381D01*
X90078919Y-93531124D01*
X90206250Y-93721688D01*
X90368312Y-93883750D01*
X90558876Y-94011081D01*
X90770619Y-94098788D01*
X90995405Y-94143500D01*
X91224595Y-94143500D01*
X91449381Y-94098788D01*
X91661124Y-94011081D01*
X91851688Y-93883750D01*
X92013750Y-93721688D01*
X92141081Y-93531124D01*
X92228788Y-93319381D01*
X92273500Y-93094595D01*
X92273500Y-92865405D01*
X92486500Y-92865405D01*
X92486500Y-93094595D01*
X92531212Y-93319381D01*
X92618919Y-93531124D01*
X92746250Y-93721688D01*
X92908312Y-93883750D01*
X93098876Y-94011081D01*
X93310619Y-94098788D01*
X93372937Y-94111184D01*
X93447452Y-94133852D01*
X93469593Y-94139713D01*
X93619756Y-94173646D01*
X93635846Y-94176842D01*
X93772273Y-94200248D01*
X93777691Y-94201128D01*
X93899714Y-94219870D01*
X94003622Y-94238866D01*
X94091984Y-94262190D01*
X94174531Y-94294599D01*
X94262779Y-94343640D01*
X94365882Y-94419477D01*
X94415801Y-94465160D01*
X94415801Y-94644553D01*
X94413076Y-94641671D01*
X94227060Y-94509679D01*
X94018868Y-94416513D01*
X93956360Y-94397558D01*
X93777000Y-94442332D01*
X93777000Y-95393000D01*
X93797000Y-95393000D01*
X93797000Y-95647000D01*
X93777000Y-95647000D01*
X93777000Y-96597668D01*
X93956360Y-96642442D01*
X94018868Y-96623487D01*
X94227060Y-96530321D01*
X94413076Y-96398329D01*
X94478444Y-96329184D01*
X94498712Y-96367104D01*
X94561694Y-96443848D01*
X94580927Y-96459632D01*
X95685801Y-97564507D01*
X95685800Y-101112836D01*
X95656678Y-101083714D01*
X95596231Y-101144161D01*
X95500386Y-100985102D01*
X95291237Y-100891376D01*
X95067822Y-100840253D01*
X94838727Y-100833698D01*
X94612754Y-100871964D01*
X94398588Y-100953580D01*
X94339614Y-100985102D01*
X94243768Y-101144163D01*
X94920000Y-101820395D01*
X94934143Y-101806253D01*
X95113748Y-101985858D01*
X95099605Y-102000000D01*
X95113748Y-102014143D01*
X94934143Y-102193748D01*
X94920000Y-102179605D01*
X94243768Y-102855837D01*
X94339614Y-103014898D01*
X94548763Y-103108624D01*
X94772178Y-103159747D01*
X95001273Y-103166302D01*
X95227246Y-103128036D01*
X95441412Y-103046420D01*
X95500386Y-103014898D01*
X95596231Y-102855839D01*
X95656678Y-102916286D01*
X95685800Y-102887164D01*
X95685800Y-103054839D01*
X95635877Y-103100525D01*
X95532779Y-103176359D01*
X95444531Y-103225400D01*
X95361984Y-103257809D01*
X95273622Y-103281133D01*
X95169714Y-103300129D01*
X95047691Y-103318871D01*
X95042273Y-103319751D01*
X94905846Y-103343157D01*
X94889756Y-103346353D01*
X94739593Y-103380286D01*
X94717451Y-103386148D01*
X94642938Y-103408816D01*
X94580619Y-103421212D01*
X94368876Y-103508919D01*
X94178312Y-103636250D01*
X94016250Y-103798312D01*
X93888919Y-103988876D01*
X93801212Y-104200619D01*
X93756500Y-104425405D01*
X93756500Y-104654595D01*
X93801212Y-104879381D01*
X93888919Y-105091124D01*
X94016250Y-105281688D01*
X94178312Y-105443750D01*
X94368876Y-105571081D01*
X94580619Y-105658788D01*
X94805405Y-105703500D01*
X95034595Y-105703500D01*
X95259381Y-105658788D01*
X95471124Y-105571081D01*
X95661688Y-105443750D01*
X95823750Y-105281688D01*
X95951081Y-105091124D01*
X96038788Y-104879381D01*
X96051184Y-104817059D01*
X96073852Y-104742546D01*
X96079713Y-104720406D01*
X96113646Y-104570243D01*
X96116842Y-104554153D01*
X96140248Y-104417726D01*
X96141128Y-104412308D01*
X96159870Y-104290285D01*
X96178866Y-104186377D01*
X96202190Y-104098015D01*
X96234599Y-104015468D01*
X96283640Y-103927220D01*
X96359477Y-103824117D01*
X96476294Y-103696470D01*
X96528678Y-103644086D01*
X96547906Y-103628306D01*
X96610888Y-103551562D01*
X96657688Y-103464005D01*
X96686507Y-103369001D01*
X96693800Y-103294954D01*
X96693800Y-103294952D01*
X96696238Y-103270201D01*
X96693800Y-103245450D01*
X96693800Y-102879238D01*
X96718312Y-102903750D01*
X96908876Y-103031081D01*
X97120619Y-103118788D01*
X97345405Y-103163500D01*
X97574595Y-103163500D01*
X97799381Y-103118788D01*
X98011124Y-103031081D01*
X98201688Y-102903750D01*
X98225800Y-102879638D01*
X98225800Y-103245046D01*
X98223362Y-103269800D01*
X98233093Y-103368601D01*
X98233215Y-103369002D01*
X98261912Y-103463604D01*
X98308712Y-103551162D01*
X98371694Y-103627906D01*
X98390927Y-103643690D01*
X98443696Y-103696459D01*
X98560522Y-103824117D01*
X98636359Y-103927220D01*
X98685400Y-104015468D01*
X98717809Y-104098015D01*
X98741133Y-104186377D01*
X98760129Y-104290285D01*
X98778871Y-104412308D01*
X98779751Y-104417726D01*
X98803157Y-104554153D01*
X98806353Y-104570243D01*
X98840286Y-104720406D01*
X98846148Y-104742548D01*
X98868816Y-104817060D01*
X98881212Y-104879381D01*
X98968919Y-105091124D01*
X99092784Y-105276501D01*
X98918346Y-105276501D01*
X98899477Y-105255882D01*
X98823640Y-105152779D01*
X98774599Y-105064531D01*
X98742190Y-104981984D01*
X98718866Y-104893622D01*
X98699870Y-104789714D01*
X98681128Y-104667691D01*
X98680248Y-104662273D01*
X98656842Y-104525846D01*
X98653646Y-104509756D01*
X98619713Y-104359593D01*
X98613852Y-104337452D01*
X98591184Y-104262937D01*
X98578788Y-104200619D01*
X98491081Y-103988876D01*
X98363750Y-103798312D01*
X98201688Y-103636250D01*
X98011124Y-103508919D01*
X97799381Y-103421212D01*
X97574595Y-103376500D01*
X97345405Y-103376500D01*
X97120619Y-103421212D01*
X96908876Y-103508919D01*
X96718312Y-103636250D01*
X96556250Y-103798312D01*
X96428919Y-103988876D01*
X96341212Y-104200619D01*
X96296500Y-104425405D01*
X96296500Y-104654595D01*
X96341212Y-104879381D01*
X96428919Y-105091124D01*
X96556250Y-105281688D01*
X96718312Y-105443750D01*
X96908876Y-105571081D01*
X97120619Y-105658788D01*
X97182937Y-105671184D01*
X97257452Y-105693852D01*
X97279593Y-105699713D01*
X97429756Y-105733646D01*
X97445846Y-105736842D01*
X97582273Y-105760248D01*
X97587691Y-105761128D01*
X97709714Y-105779870D01*
X97813622Y-105798866D01*
X97901984Y-105822190D01*
X97984531Y-105854599D01*
X98072779Y-105903640D01*
X98175882Y-105979477D01*
X98303531Y-106096295D01*
X98326615Y-106119379D01*
X98342395Y-106138607D01*
X98419139Y-106201589D01*
X98506696Y-106248389D01*
X98601700Y-106277208D01*
X98675747Y-106284501D01*
X98675749Y-106284501D01*
X98700500Y-106286939D01*
X98725251Y-106284501D01*
X103169685Y-106284501D01*
X103194439Y-106286939D01*
X103293240Y-106277208D01*
X103293243Y-106277207D01*
X103388244Y-106248389D01*
X103475801Y-106201589D01*
X103552545Y-106138607D01*
X103568329Y-106119374D01*
X104148678Y-105539026D01*
X104167906Y-105523246D01*
X104230888Y-105446502D01*
X104262008Y-105388280D01*
X104333641Y-105472532D01*
X104336399Y-105475732D01*
X104422682Y-105574487D01*
X104486585Y-105654546D01*
X104519259Y-105707416D01*
X104523200Y-105718939D01*
X104520459Y-105725804D01*
X104465784Y-105793853D01*
X100931123Y-109328514D01*
X100911895Y-109344294D01*
X100896115Y-109363522D01*
X100848913Y-109421038D01*
X100831873Y-109452918D01*
X100788840Y-109503112D01*
X100778747Y-109515511D01*
X100690103Y-109630264D01*
X100679248Y-109645206D01*
X100603542Y-109756148D01*
X100593693Y-109771525D01*
X100525980Y-109884345D01*
X100518601Y-109897332D01*
X100453939Y-110017717D01*
X100449496Y-110026302D01*
X100382940Y-110159941D01*
X100381047Y-110163809D01*
X100307655Y-110316391D01*
X100307613Y-110316478D01*
X100256948Y-110421894D01*
X100238919Y-110448876D01*
X100151212Y-110660619D01*
X100106500Y-110885405D01*
X100106500Y-111114595D01*
X100151212Y-111339381D01*
X100238919Y-111551124D01*
X100366250Y-111741688D01*
X100528312Y-111903750D01*
X100718876Y-112031081D01*
X100930619Y-112118788D01*
X101155405Y-112163500D01*
X101384595Y-112163500D01*
X101609381Y-112118788D01*
X101821124Y-112031081D01*
X102011688Y-111903750D01*
X102173750Y-111741688D01*
X102301081Y-111551124D01*
X102388788Y-111339381D01*
X102433500Y-111114595D01*
X102433500Y-110885405D01*
X102388788Y-110660619D01*
X102301081Y-110448876D01*
X102244135Y-110363651D01*
X102234503Y-110346802D01*
X102216680Y-110319111D01*
X102185003Y-110275153D01*
X102173750Y-110258312D01*
X102170589Y-110255151D01*
X102132532Y-110202340D01*
X102121681Y-110188153D01*
X102033526Y-110079454D01*
X102032090Y-110077696D01*
X101952403Y-109980881D01*
X101895057Y-109903622D01*
X101866821Y-109853559D01*
X101863231Y-109841460D01*
X101867960Y-109830130D01*
X101922617Y-109762546D01*
X105418873Y-106266290D01*
X105438106Y-106250506D01*
X105501088Y-106173762D01*
X105521398Y-106135765D01*
X105596223Y-106043351D01*
X105607902Y-106027983D01*
X105691452Y-105910712D01*
X105702844Y-105893556D01*
X105773108Y-105779805D01*
X105782364Y-105763781D01*
X105844673Y-105648162D01*
X105850690Y-105636411D01*
X105910376Y-105513536D01*
X105913154Y-105507663D01*
X105975546Y-105372142D01*
X105975734Y-105371734D01*
X106045368Y-105219910D01*
X106094832Y-105115443D01*
X106111081Y-105091124D01*
X106198788Y-104879381D01*
X106243500Y-104654595D01*
X106243500Y-104425405D01*
X106198788Y-104200619D01*
X106111081Y-103988876D01*
X105983750Y-103798312D01*
X105821688Y-103636250D01*
X105631124Y-103508919D01*
X105419381Y-103421212D01*
X105194595Y-103376500D01*
X104965405Y-103376500D01*
X104740619Y-103421212D01*
X104528876Y-103508919D01*
X104338312Y-103636250D01*
X104313800Y-103660762D01*
X104313800Y-103165016D01*
X104923060Y-103165016D01*
X105049756Y-103193646D01*
X105065846Y-103196842D01*
X105202273Y-103220248D01*
X105207691Y-103221128D01*
X105329714Y-103239870D01*
X105433622Y-103258866D01*
X105521984Y-103282190D01*
X105604531Y-103314599D01*
X105692779Y-103363640D01*
X105795882Y-103439477D01*
X105923535Y-103556298D01*
X106430001Y-104062765D01*
X106430000Y-106369636D01*
X103471123Y-109328514D01*
X103451895Y-109344294D01*
X103436115Y-109363522D01*
X103388913Y-109421038D01*
X103371873Y-109452918D01*
X103328840Y-109503112D01*
X103318747Y-109515511D01*
X103230103Y-109630264D01*
X103219248Y-109645206D01*
X103143542Y-109756148D01*
X103133693Y-109771525D01*
X103095606Y-109834984D01*
X102960000Y-109834984D01*
X102898543Y-109841037D01*
X102839449Y-109858963D01*
X102784986Y-109888074D01*
X102737250Y-109927250D01*
X102698074Y-109974986D01*
X102668963Y-110029449D01*
X102651037Y-110088543D01*
X102644984Y-110150000D01*
X102644984Y-111850000D01*
X102651037Y-111911457D01*
X102668963Y-111970551D01*
X102698074Y-112025014D01*
X102737250Y-112072750D01*
X102784986Y-112111926D01*
X102839449Y-112141037D01*
X102898543Y-112158963D01*
X102960000Y-112165016D01*
X104660000Y-112165016D01*
X104721457Y-112158963D01*
X104780551Y-112141037D01*
X104835014Y-112111926D01*
X104882750Y-112072750D01*
X104921926Y-112025014D01*
X104951037Y-111970551D01*
X104968963Y-111911457D01*
X104975016Y-111850000D01*
X104975016Y-110150000D01*
X104968963Y-110088543D01*
X104951037Y-110029449D01*
X104921926Y-109974986D01*
X104882750Y-109927250D01*
X104835014Y-109888074D01*
X104780551Y-109858963D01*
X104721457Y-109841037D01*
X104660000Y-109834984D01*
X104405934Y-109834984D01*
X104407960Y-109830130D01*
X104462616Y-109762547D01*
X107272878Y-106952286D01*
X107292106Y-106936506D01*
X107355088Y-106859762D01*
X107401888Y-106772205D01*
X107430707Y-106677201D01*
X107438000Y-106603154D01*
X107438000Y-106603153D01*
X107440438Y-106578401D01*
X107438000Y-106553647D01*
X107438000Y-103878754D01*
X107440438Y-103854000D01*
X107430707Y-103755198D01*
X107411337Y-103691344D01*
X107401888Y-103660195D01*
X107355088Y-103572638D01*
X107292106Y-103495894D01*
X107272878Y-103480114D01*
X106636298Y-102843535D01*
X106519477Y-102715882D01*
X106443640Y-102612779D01*
X106394599Y-102524531D01*
X106362190Y-102441984D01*
X106338866Y-102353622D01*
X106319870Y-102249714D01*
X106301128Y-102127691D01*
X106300248Y-102122273D01*
X106276842Y-101985846D01*
X106273646Y-101969756D01*
X106245016Y-101843060D01*
X106245016Y-101150000D01*
X106238963Y-101088543D01*
X106221037Y-101029449D01*
X106191926Y-100974986D01*
X106152750Y-100927250D01*
X106105014Y-100888074D01*
X106050551Y-100858963D01*
X105991457Y-100841037D01*
X105930000Y-100834984D01*
X105596035Y-100834984D01*
X105584000Y-100818474D01*
X105584000Y-100749508D01*
X105613829Y-100711934D01*
X107066564Y-99259200D01*
X109881046Y-99259200D01*
X109905800Y-99261638D01*
X110004601Y-99251907D01*
X110099605Y-99223088D01*
X110187162Y-99176288D01*
X110263906Y-99113306D01*
X110279690Y-99094073D01*
X111768878Y-97604886D01*
X111788106Y-97589106D01*
X111851088Y-97512362D01*
X111897888Y-97424805D01*
X111926707Y-97329801D01*
X111934000Y-97255754D01*
X111934000Y-97255752D01*
X111936438Y-97231001D01*
X111934327Y-97209568D01*
X111941659Y-97044064D01*
X111960937Y-96917548D01*
X111988665Y-96820454D01*
X112024110Y-96739183D01*
X112070106Y-96660197D01*
X112130140Y-96573303D01*
X112203176Y-96473760D01*
X112206384Y-96469307D01*
X112286302Y-96356288D01*
X112295420Y-96342650D01*
X112377607Y-96212474D01*
X112389118Y-96192675D01*
X112425779Y-96123958D01*
X112461081Y-96071124D01*
X112548788Y-95859381D01*
X112593500Y-95634595D01*
X112593500Y-95405405D01*
X112548788Y-95180619D01*
X112461081Y-94968876D01*
X112425777Y-94916040D01*
X112389118Y-94847325D01*
X112377607Y-94827525D01*
X112295420Y-94697349D01*
X112286302Y-94683711D01*
X112206384Y-94570692D01*
X112203176Y-94566239D01*
X112130140Y-94466696D01*
X112070106Y-94379802D01*
X112024110Y-94300816D01*
X112001947Y-94250000D01*
X112024110Y-94199183D01*
X112055653Y-94145016D01*
X112280000Y-94145016D01*
X112341457Y-94138963D01*
X112400551Y-94121037D01*
X112455014Y-94091926D01*
X112502750Y-94052750D01*
X112541926Y-94005014D01*
X112571037Y-93950551D01*
X112588963Y-93891457D01*
X112595016Y-93830000D01*
X112595016Y-92130000D01*
X112588963Y-92068543D01*
X112571037Y-92009449D01*
X112541926Y-91954986D01*
X112502750Y-91907250D01*
X112455014Y-91868074D01*
X112400551Y-91838963D01*
X112341457Y-91821037D01*
X112280000Y-91814984D01*
X110580000Y-91814984D01*
X110518543Y-91821037D01*
X110459449Y-91838963D01*
X110404986Y-91868074D01*
X110357250Y-91907250D01*
X110318074Y-91954986D01*
X110288963Y-92009449D01*
X110271037Y-92068543D01*
X110264984Y-92130000D01*
X110264984Y-93830000D01*
X110271037Y-93891457D01*
X110288963Y-93950551D01*
X110318074Y-94005014D01*
X110357250Y-94052750D01*
X110404986Y-94091926D01*
X110459449Y-94121037D01*
X110518543Y-94138963D01*
X110580000Y-94145016D01*
X110804346Y-94145016D01*
X110835889Y-94199183D01*
X110858052Y-94250000D01*
X110835889Y-94300816D01*
X110789893Y-94379802D01*
X110729859Y-94466696D01*
X110656823Y-94566239D01*
X110653615Y-94570692D01*
X110573697Y-94683711D01*
X110564579Y-94697349D01*
X110482392Y-94827525D01*
X110470880Y-94847326D01*
X110434218Y-94916048D01*
X110398919Y-94968876D01*
X110311212Y-95180619D01*
X110266500Y-95405405D01*
X110266500Y-95634595D01*
X110311212Y-95859381D01*
X110398919Y-96071124D01*
X110434221Y-96123958D01*
X110470881Y-96192674D01*
X110482392Y-96212474D01*
X110564579Y-96342650D01*
X110573697Y-96356288D01*
X110653615Y-96469307D01*
X110656823Y-96473760D01*
X110729859Y-96573303D01*
X110789893Y-96660197D01*
X110835889Y-96739183D01*
X110871334Y-96820454D01*
X110899062Y-96917548D01*
X110916467Y-97031769D01*
X109697037Y-98251200D01*
X106882554Y-98251200D01*
X106857800Y-98248762D01*
X106758998Y-98258493D01*
X106730179Y-98267235D01*
X106663995Y-98287312D01*
X106576438Y-98334112D01*
X106499694Y-98397094D01*
X106483914Y-98416322D01*
X104741123Y-100159114D01*
X104721895Y-100174894D01*
X104706115Y-100194122D01*
X104658913Y-100251638D01*
X104642787Y-100281808D01*
X104598141Y-100335147D01*
X104583517Y-100354037D01*
X104490462Y-100484192D01*
X104476068Y-100506225D01*
X104403247Y-100628618D01*
X104391363Y-100650529D01*
X104332605Y-100769968D01*
X104324803Y-100787108D01*
X104313800Y-100813344D01*
X104313800Y-97564905D01*
X105418678Y-96460028D01*
X105437906Y-96444248D01*
X105500888Y-96367504D01*
X105521438Y-96329058D01*
X105586924Y-96398329D01*
X105772940Y-96530321D01*
X105981132Y-96623487D01*
X106043640Y-96642442D01*
X106223000Y-96597668D01*
X106223000Y-95647000D01*
X106477000Y-95647000D01*
X106477000Y-96597668D01*
X106656360Y-96642442D01*
X106718868Y-96623487D01*
X106927060Y-96530321D01*
X107113076Y-96398329D01*
X107269767Y-96232583D01*
X107391112Y-96039453D01*
X107472448Y-95826361D01*
X107767552Y-95826361D01*
X107848888Y-96039453D01*
X107970233Y-96232583D01*
X108126924Y-96398329D01*
X108312940Y-96530321D01*
X108521132Y-96623487D01*
X108583640Y-96642442D01*
X108763000Y-96597668D01*
X108763000Y-95647000D01*
X109017000Y-95647000D01*
X109017000Y-96597668D01*
X109196360Y-96642442D01*
X109258868Y-96623487D01*
X109467060Y-96530321D01*
X109653076Y-96398329D01*
X109809767Y-96232583D01*
X109931112Y-96039453D01*
X110012448Y-95826361D01*
X109968179Y-95647000D01*
X109017000Y-95647000D01*
X108763000Y-95647000D01*
X107811821Y-95647000D01*
X107767552Y-95826361D01*
X107472448Y-95826361D01*
X107428179Y-95647000D01*
X106477000Y-95647000D01*
X106223000Y-95647000D01*
X106203000Y-95647000D01*
X106203000Y-95393000D01*
X106223000Y-95393000D01*
X106223000Y-94442332D01*
X106477000Y-94442332D01*
X106477000Y-95393000D01*
X107428179Y-95393000D01*
X107472448Y-95213639D01*
X107767552Y-95213639D01*
X107811821Y-95393000D01*
X108763000Y-95393000D01*
X108763000Y-94442332D01*
X109017000Y-94442332D01*
X109017000Y-95393000D01*
X109968179Y-95393000D01*
X110012448Y-95213639D01*
X109931112Y-95000547D01*
X109809767Y-94807417D01*
X109653076Y-94641671D01*
X109467060Y-94509679D01*
X109258868Y-94416513D01*
X109196360Y-94397558D01*
X109017000Y-94442332D01*
X108763000Y-94442332D01*
X108583640Y-94397558D01*
X108521132Y-94416513D01*
X108312940Y-94509679D01*
X108126924Y-94641671D01*
X107970233Y-94807417D01*
X107848888Y-95000547D01*
X107767552Y-95213639D01*
X107472448Y-95213639D01*
X107391112Y-95000547D01*
X107269767Y-94807417D01*
X107113076Y-94641671D01*
X106927060Y-94509679D01*
X106718868Y-94416513D01*
X106656360Y-94397558D01*
X106477000Y-94442332D01*
X106223000Y-94442332D01*
X106043640Y-94397558D01*
X105981132Y-94416513D01*
X105772940Y-94509679D01*
X105586924Y-94641671D01*
X105583800Y-94644976D01*
X105583800Y-94465525D01*
X105634117Y-94419477D01*
X105737220Y-94343640D01*
X105825468Y-94294599D01*
X105908015Y-94262190D01*
X105996377Y-94238866D01*
X106100285Y-94219870D01*
X106222308Y-94201128D01*
X106227726Y-94200248D01*
X106364153Y-94176842D01*
X106380243Y-94173646D01*
X106530406Y-94139713D01*
X106552546Y-94133852D01*
X106627059Y-94111184D01*
X106689381Y-94098788D01*
X106901124Y-94011081D01*
X107091688Y-93883750D01*
X107253750Y-93721688D01*
X107381081Y-93531124D01*
X107468788Y-93319381D01*
X107513500Y-93094595D01*
X107513500Y-92865405D01*
X107726500Y-92865405D01*
X107726500Y-93094595D01*
X107771212Y-93319381D01*
X107858919Y-93531124D01*
X107986250Y-93721688D01*
X108148312Y-93883750D01*
X108338876Y-94011081D01*
X108550619Y-94098788D01*
X108775405Y-94143500D01*
X109004595Y-94143500D01*
X109229381Y-94098788D01*
X109441124Y-94011081D01*
X109631688Y-93883750D01*
X109793750Y-93721688D01*
X109921081Y-93531124D01*
X110008788Y-93319381D01*
X110053500Y-93094595D01*
X110053500Y-92865405D01*
X110008788Y-92640619D01*
X109921081Y-92428876D01*
X109793750Y-92238312D01*
X109631688Y-92076250D01*
X109441124Y-91948919D01*
X109229381Y-91861212D01*
X109004595Y-91816500D01*
X108775405Y-91816500D01*
X108550619Y-91861212D01*
X108338876Y-91948919D01*
X108148312Y-92076250D01*
X107986250Y-92238312D01*
X107858919Y-92428876D01*
X107771212Y-92640619D01*
X107726500Y-92865405D01*
X107513500Y-92865405D01*
X107468788Y-92640619D01*
X107381081Y-92428876D01*
X107253750Y-92238312D01*
X107091688Y-92076250D01*
X106901124Y-91948919D01*
X106689381Y-91861212D01*
X106464595Y-91816500D01*
X106235405Y-91816500D01*
X106010619Y-91861212D01*
X105798876Y-91948919D01*
X105608312Y-92076250D01*
X105446250Y-92238312D01*
X105318919Y-92428876D01*
X105231212Y-92640619D01*
X105218816Y-92702938D01*
X105196148Y-92777451D01*
X105190286Y-92799593D01*
X105156353Y-92949756D01*
X105153157Y-92965846D01*
X105129751Y-93102273D01*
X105128871Y-93107691D01*
X105110129Y-93229714D01*
X105091133Y-93333622D01*
X105067809Y-93421984D01*
X105035400Y-93504531D01*
X104986359Y-93592779D01*
X104910525Y-93695877D01*
X104793683Y-93823554D01*
X104740923Y-93876314D01*
X104721695Y-93892094D01*
X104705915Y-93911322D01*
X104658713Y-93968838D01*
X104611913Y-94056395D01*
X104583093Y-94151399D01*
X104573362Y-94250200D01*
X104575801Y-94274963D01*
X104575801Y-94644553D01*
X104573076Y-94641671D01*
X104387060Y-94509679D01*
X104178868Y-94416513D01*
X104116360Y-94397558D01*
X103937000Y-94442332D01*
X103937000Y-95393000D01*
X103957000Y-95393000D01*
X103957000Y-95647000D01*
X103937000Y-95647000D01*
X103937000Y-95667000D01*
X103683000Y-95667000D01*
X103683000Y-95647000D01*
X103663000Y-95647000D01*
X103663000Y-95393000D01*
X103683000Y-95393000D01*
X103683000Y-94442332D01*
X103503640Y-94397558D01*
X103441132Y-94416513D01*
X103232940Y-94509679D01*
X103046924Y-94641671D01*
X103043800Y-94644976D01*
X103043800Y-94274550D01*
X103046238Y-94249799D01*
X103041444Y-94201128D01*
X103036507Y-94150999D01*
X103007688Y-94055995D01*
X102960888Y-93968438D01*
X102897906Y-93891694D01*
X102878678Y-93875914D01*
X102826295Y-93823531D01*
X102709477Y-93695882D01*
X102633640Y-93592779D01*
X102584599Y-93504531D01*
X102552190Y-93421984D01*
X102528866Y-93333622D01*
X102509870Y-93229714D01*
X102491128Y-93107691D01*
X102490248Y-93102273D01*
X102466842Y-92965846D01*
X102463646Y-92949756D01*
X102444585Y-92865405D01*
X102646500Y-92865405D01*
X102646500Y-93094595D01*
X102691212Y-93319381D01*
X102778919Y-93531124D01*
X102906250Y-93721688D01*
X103068312Y-93883750D01*
X103258876Y-94011081D01*
X103470619Y-94098788D01*
X103695405Y-94143500D01*
X103924595Y-94143500D01*
X104149381Y-94098788D01*
X104361124Y-94011081D01*
X104551688Y-93883750D01*
X104713750Y-93721688D01*
X104841081Y-93531124D01*
X104928788Y-93319381D01*
X104973500Y-93094595D01*
X104973500Y-92865405D01*
X104928788Y-92640619D01*
X104841081Y-92428876D01*
X104713750Y-92238312D01*
X104551688Y-92076250D01*
X104361124Y-91948919D01*
X104149381Y-91861212D01*
X103924595Y-91816500D01*
X103695405Y-91816500D01*
X103470619Y-91861212D01*
X103258876Y-91948919D01*
X103068312Y-92076250D01*
X102906250Y-92238312D01*
X102778919Y-92428876D01*
X102691212Y-92640619D01*
X102646500Y-92865405D01*
X102444585Y-92865405D01*
X102429713Y-92799593D01*
X102423852Y-92777452D01*
X102401184Y-92702937D01*
X102388788Y-92640619D01*
X102301081Y-92428876D01*
X102173750Y-92238312D01*
X102011688Y-92076250D01*
X101821124Y-91948919D01*
X101609381Y-91861212D01*
X101384595Y-91816500D01*
X101155405Y-91816500D01*
X100930619Y-91861212D01*
X100718876Y-91948919D01*
X100528312Y-92076250D01*
X100366250Y-92238312D01*
X100238919Y-92428876D01*
X100151212Y-92640619D01*
X100106500Y-92865405D01*
X100106500Y-93094595D01*
X100151212Y-93319381D01*
X100238919Y-93531124D01*
X100366250Y-93721688D01*
X100528312Y-93883750D01*
X100718876Y-94011081D01*
X100930619Y-94098788D01*
X100992937Y-94111184D01*
X101067452Y-94133852D01*
X101089593Y-94139713D01*
X101239756Y-94173646D01*
X101255846Y-94176842D01*
X101392273Y-94200248D01*
X101397691Y-94201128D01*
X101519714Y-94219870D01*
X101623622Y-94238866D01*
X101711984Y-94262190D01*
X101794531Y-94294599D01*
X101882779Y-94343640D01*
X101985882Y-94419477D01*
X102035801Y-94465160D01*
X102035801Y-94644553D01*
X102033076Y-94641671D01*
X101847060Y-94509679D01*
X101638868Y-94416513D01*
X101576360Y-94397558D01*
X101397000Y-94442332D01*
X101397000Y-95393000D01*
X101417000Y-95393000D01*
X101417000Y-95647000D01*
X101397000Y-95647000D01*
X101397000Y-95667000D01*
X101143000Y-95667000D01*
X101143000Y-95647000D01*
X100191821Y-95647000D01*
X100147552Y-95826361D01*
X100228888Y-96039453D01*
X100350233Y-96232583D01*
X100506924Y-96398329D01*
X100692940Y-96530321D01*
X100901132Y-96623487D01*
X100963640Y-96642442D01*
X101142998Y-96597668D01*
X101142998Y-96683500D01*
X101229679Y-96683500D01*
X100930923Y-96982256D01*
X100911695Y-96998036D01*
X100895915Y-97017264D01*
X100848713Y-97074780D01*
X100801913Y-97162337D01*
X100773093Y-97257341D01*
X100763362Y-97356142D01*
X100765801Y-97380906D01*
X100765800Y-101112836D01*
X100736678Y-101083714D01*
X100676231Y-101144161D01*
X100580386Y-100985102D01*
X100371237Y-100891376D01*
X100147822Y-100840253D01*
X99918727Y-100833698D01*
X99692754Y-100871964D01*
X99478588Y-100953580D01*
X99419614Y-100985102D01*
X99323769Y-101144161D01*
X99263322Y-101083714D01*
X99233800Y-101113236D01*
X99233800Y-97380492D01*
X99236238Y-97355741D01*
X99233683Y-97329800D01*
X99226507Y-97256941D01*
X99197688Y-97161937D01*
X99150888Y-97074380D01*
X99087906Y-96997636D01*
X99068678Y-96981856D01*
X98770322Y-96683500D01*
X98857002Y-96683500D01*
X98857002Y-96597668D01*
X99036360Y-96642442D01*
X99098868Y-96623487D01*
X99307060Y-96530321D01*
X99493076Y-96398329D01*
X99649767Y-96232583D01*
X99771112Y-96039453D01*
X99852448Y-95826361D01*
X99808179Y-95647000D01*
X98857000Y-95647000D01*
X98857000Y-95667000D01*
X98603000Y-95667000D01*
X98603000Y-95647000D01*
X98583000Y-95647000D01*
X98583000Y-95393000D01*
X98603000Y-95393000D01*
X98603000Y-94442332D01*
X98857000Y-94442332D01*
X98857000Y-95393000D01*
X99808179Y-95393000D01*
X99852448Y-95213639D01*
X100147552Y-95213639D01*
X100191821Y-95393000D01*
X101143000Y-95393000D01*
X101143000Y-94442332D01*
X100963640Y-94397558D01*
X100901132Y-94416513D01*
X100692940Y-94509679D01*
X100506924Y-94641671D01*
X100350233Y-94807417D01*
X100228888Y-95000547D01*
X100147552Y-95213639D01*
X99852448Y-95213639D01*
X99771112Y-95000547D01*
X99649767Y-94807417D01*
X99493076Y-94641671D01*
X99307060Y-94509679D01*
X99098868Y-94416513D01*
X99036360Y-94397558D01*
X98857000Y-94442332D01*
X98603000Y-94442332D01*
X98423640Y-94397558D01*
X98361132Y-94416513D01*
X98152940Y-94509679D01*
X97966924Y-94641671D01*
X97963800Y-94644976D01*
X97963800Y-94274550D01*
X97966238Y-94249799D01*
X97961444Y-94201128D01*
X97956507Y-94150999D01*
X97927688Y-94055995D01*
X97880888Y-93968438D01*
X97817906Y-93891694D01*
X97798678Y-93875914D01*
X97746295Y-93823531D01*
X97629477Y-93695882D01*
X97553640Y-93592779D01*
X97504599Y-93504531D01*
X97472190Y-93421984D01*
X97448866Y-93333622D01*
X97429870Y-93229714D01*
X97411128Y-93107691D01*
X97410248Y-93102273D01*
X97386842Y-92965846D01*
X97383646Y-92949756D01*
X97364585Y-92865405D01*
X97566500Y-92865405D01*
X97566500Y-93094595D01*
X97611212Y-93319381D01*
X97698919Y-93531124D01*
X97826250Y-93721688D01*
X97988312Y-93883750D01*
X98178876Y-94011081D01*
X98390619Y-94098788D01*
X98615405Y-94143500D01*
X98844595Y-94143500D01*
X99069381Y-94098788D01*
X99281124Y-94011081D01*
X99471688Y-93883750D01*
X99633750Y-93721688D01*
X99761081Y-93531124D01*
X99848788Y-93319381D01*
X99893500Y-93094595D01*
X99893500Y-92865405D01*
X99848788Y-92640619D01*
X99761081Y-92428876D01*
X99633750Y-92238312D01*
X99471688Y-92076250D01*
X99281124Y-91948919D01*
X99069381Y-91861212D01*
X98844595Y-91816500D01*
X98615405Y-91816500D01*
X98390619Y-91861212D01*
X98178876Y-91948919D01*
X97988312Y-92076250D01*
X97826250Y-92238312D01*
X97698919Y-92428876D01*
X97611212Y-92640619D01*
X97566500Y-92865405D01*
X97364585Y-92865405D01*
X97349713Y-92799593D01*
X97343852Y-92777452D01*
X97321184Y-92702937D01*
X97308788Y-92640619D01*
X97221081Y-92428876D01*
X97093750Y-92238312D01*
X96931688Y-92076250D01*
X96741124Y-91948919D01*
X96529381Y-91861212D01*
X96304595Y-91816500D01*
X96075405Y-91816500D01*
X95850619Y-91861212D01*
X95638876Y-91948919D01*
X95448312Y-92076250D01*
X95286250Y-92238312D01*
X95158919Y-92428876D01*
X95071212Y-92640619D01*
X95026500Y-92865405D01*
X95026500Y-93094595D01*
X95071212Y-93319381D01*
X95158919Y-93531124D01*
X95286250Y-93721688D01*
X95448312Y-93883750D01*
X95638876Y-94011081D01*
X95850619Y-94098788D01*
X95912937Y-94111184D01*
X95987452Y-94133852D01*
X96009593Y-94139713D01*
X96159756Y-94173646D01*
X96175846Y-94176842D01*
X96312273Y-94200248D01*
X96317691Y-94201128D01*
X96439714Y-94219870D01*
X96543622Y-94238866D01*
X96631984Y-94262190D01*
X96714531Y-94294599D01*
X96802779Y-94343640D01*
X96905882Y-94419477D01*
X96955801Y-94465160D01*
X96955801Y-94644553D01*
X96953076Y-94641671D01*
X96767060Y-94509679D01*
X96558868Y-94416513D01*
X96496360Y-94397558D01*
X96317000Y-94442332D01*
X96317000Y-95393000D01*
X96337000Y-95393000D01*
X96337000Y-95647000D01*
X96317000Y-95647000D01*
X96317000Y-95667000D01*
X96063000Y-95667000D01*
X96063000Y-95647000D01*
X96043000Y-95647000D01*
X96043000Y-95393000D01*
X96063000Y-95393000D01*
X96063000Y-94442332D01*
X95883640Y-94397558D01*
X95821132Y-94416513D01*
X95612940Y-94509679D01*
X95426924Y-94641671D01*
X95423800Y-94644976D01*
X95423800Y-94274550D01*
X95426238Y-94249799D01*
X95421444Y-94201128D01*
X95416507Y-94150999D01*
X95387688Y-94055995D01*
X95340888Y-93968438D01*
X95277906Y-93891694D01*
X95258678Y-93875914D01*
X95206295Y-93823531D01*
X95089477Y-93695882D01*
X95013640Y-93592779D01*
X94964599Y-93504531D01*
X94932190Y-93421984D01*
X94908866Y-93333622D01*
X94889870Y-93229714D01*
X94871128Y-93107691D01*
X94870248Y-93102273D01*
X94846842Y-92965846D01*
X94843646Y-92949756D01*
X94809713Y-92799593D01*
X94803852Y-92777452D01*
X94781184Y-92702937D01*
X94768788Y-92640619D01*
X94681081Y-92428876D01*
X94553750Y-92238312D01*
X94391688Y-92076250D01*
X94201124Y-91948919D01*
X93989381Y-91861212D01*
X93764595Y-91816500D01*
X93535405Y-91816500D01*
X93310619Y-91861212D01*
X93098876Y-91948919D01*
X92908312Y-92076250D01*
X92746250Y-92238312D01*
X92618919Y-92428876D01*
X92531212Y-92640619D01*
X92486500Y-92865405D01*
X92273500Y-92865405D01*
X92228788Y-92640619D01*
X92141081Y-92428876D01*
X92013750Y-92238312D01*
X91851688Y-92076250D01*
X91661124Y-91948919D01*
X91449381Y-91861212D01*
X91224595Y-91816500D01*
X90995405Y-91816500D01*
X90770619Y-91861212D01*
X90558876Y-91948919D01*
X90368312Y-92076250D01*
X90206250Y-92238312D01*
X90078919Y-92428876D01*
X89991212Y-92640619D01*
X89946500Y-92865405D01*
X89733500Y-92865405D01*
X89688788Y-92640619D01*
X89601081Y-92428876D01*
X89473750Y-92238312D01*
X89311688Y-92076250D01*
X89121124Y-91948919D01*
X88909381Y-91861212D01*
X88684595Y-91816500D01*
X88455405Y-91816500D01*
X88230619Y-91861212D01*
X88018876Y-91948919D01*
X87828312Y-92076250D01*
X87666250Y-92238312D01*
X87538919Y-92428876D01*
X87451212Y-92640619D01*
X87406500Y-92865405D01*
X84440500Y-92865405D01*
X84440500Y-91521547D01*
X84462750Y-91294617D01*
X84522397Y-91097059D01*
X84619278Y-90914853D01*
X84749709Y-90754928D01*
X84908716Y-90623387D01*
X85090248Y-90525232D01*
X85287381Y-90464209D01*
X85512965Y-90440500D01*
X114478453Y-90440500D01*
X114705383Y-90462750D01*
G37*
G04 #@! TD.AperFunction*
D16*
X100193748Y-101985858D02*
X100179605Y-102000000D01*
X100193748Y-102014143D01*
X100014143Y-102193748D01*
X100000000Y-102179605D01*
X99985858Y-102193748D01*
X99806253Y-102014143D01*
X99820395Y-102000000D01*
X99806253Y-101985858D01*
X99985858Y-101806253D01*
X100000000Y-101820395D01*
X100014143Y-101806253D01*
X100193748Y-101985858D01*
G04 #@! TA.AperFunction,Conductor*
D17*
G36*
X100193748Y-101985858D02*
G01*
X100179605Y-102000000D01*
X100193748Y-102014143D01*
X100014143Y-102193748D01*
X100000000Y-102179605D01*
X99985858Y-102193748D01*
X99806253Y-102014143D01*
X99820395Y-102000000D01*
X99806253Y-101985858D01*
X99985858Y-101806253D01*
X100000000Y-101820395D01*
X100014143Y-101806253D01*
X100193748Y-101985858D01*
G37*
G04 #@! TD.AperFunction*
D16*
X102733748Y-101985858D02*
X102719605Y-102000000D01*
X102733748Y-102014143D01*
X102554143Y-102193748D01*
X102540000Y-102179605D01*
X102525858Y-102193748D01*
X102346253Y-102014143D01*
X102360395Y-102000000D01*
X102346253Y-101985858D01*
X102525858Y-101806253D01*
X102540000Y-101820395D01*
X102554143Y-101806253D01*
X102733748Y-101985858D01*
G04 #@! TA.AperFunction,Conductor*
D17*
G36*
X102733748Y-101985858D02*
G01*
X102719605Y-102000000D01*
X102733748Y-102014143D01*
X102554143Y-102193748D01*
X102540000Y-102179605D01*
X102525858Y-102193748D01*
X102346253Y-102014143D01*
X102360395Y-102000000D01*
X102346253Y-101985858D01*
X102525858Y-101806253D01*
X102540000Y-101820395D01*
X102554143Y-101806253D01*
X102733748Y-101985858D01*
G37*
G04 #@! TD.AperFunction*
D16*
X103046924Y-96398329D02*
X103232940Y-96530321D01*
X103441132Y-96623487D01*
X103503640Y-96642442D01*
X103682998Y-96597668D01*
X103682998Y-96683500D01*
X103769679Y-96683500D01*
X103470923Y-96982256D01*
X103451695Y-96998036D01*
X103435915Y-97017264D01*
X103388713Y-97074780D01*
X103341913Y-97162337D01*
X103313093Y-97257341D01*
X103303362Y-97356142D01*
X103305801Y-97380906D01*
X103305800Y-101112836D01*
X103276678Y-101083714D01*
X103216231Y-101144161D01*
X103120386Y-100985102D01*
X102911237Y-100891376D01*
X102687822Y-100840253D01*
X102458727Y-100833698D01*
X102232754Y-100871964D01*
X102018588Y-100953580D01*
X101959614Y-100985102D01*
X101863769Y-101144161D01*
X101803322Y-101083714D01*
X101773800Y-101113236D01*
X101773800Y-97564905D01*
X102878678Y-96460028D01*
X102897906Y-96444248D01*
X102960888Y-96367504D01*
X102981438Y-96329058D01*
X103046924Y-96398329D01*
G04 #@! TA.AperFunction,Conductor*
D17*
G36*
X103046924Y-96398329D02*
G01*
X103232940Y-96530321D01*
X103441132Y-96623487D01*
X103503640Y-96642442D01*
X103682998Y-96597668D01*
X103682998Y-96683500D01*
X103769679Y-96683500D01*
X103470923Y-96982256D01*
X103451695Y-96998036D01*
X103435915Y-97017264D01*
X103388713Y-97074780D01*
X103341913Y-97162337D01*
X103313093Y-97257341D01*
X103303362Y-97356142D01*
X103305801Y-97380906D01*
X103305800Y-101112836D01*
X103276678Y-101083714D01*
X103216231Y-101144161D01*
X103120386Y-100985102D01*
X102911237Y-100891376D01*
X102687822Y-100840253D01*
X102458727Y-100833698D01*
X102232754Y-100871964D01*
X102018588Y-100953580D01*
X101959614Y-100985102D01*
X101863769Y-101144161D01*
X101803322Y-101083714D01*
X101773800Y-101113236D01*
X101773800Y-97564905D01*
X102878678Y-96460028D01*
X102897906Y-96444248D01*
X102960888Y-96367504D01*
X102981438Y-96329058D01*
X103046924Y-96398329D01*
G37*
G04 #@! TD.AperFunction*
D16*
X97038712Y-96367104D02*
X97101694Y-96443848D01*
X97120927Y-96459632D01*
X98225801Y-97564507D01*
X98225800Y-101120362D01*
X98201688Y-101096250D01*
X98011124Y-100968919D01*
X97799381Y-100881212D01*
X97574595Y-100836500D01*
X97345405Y-100836500D01*
X97120619Y-100881212D01*
X96908876Y-100968919D01*
X96718312Y-101096250D01*
X96693800Y-101120762D01*
X96693800Y-97380492D01*
X96696238Y-97355741D01*
X96693683Y-97329800D01*
X96686507Y-97256941D01*
X96657688Y-97161937D01*
X96610888Y-97074380D01*
X96547906Y-96997636D01*
X96528678Y-96981856D01*
X96230322Y-96683500D01*
X96317002Y-96683500D01*
X96317002Y-96597668D01*
X96496360Y-96642442D01*
X96558868Y-96623487D01*
X96767060Y-96530321D01*
X96953076Y-96398329D01*
X97018444Y-96329184D01*
X97038712Y-96367104D01*
G04 #@! TA.AperFunction,Conductor*
D17*
G36*
X97038712Y-96367104D02*
G01*
X97101694Y-96443848D01*
X97120927Y-96459632D01*
X98225801Y-97564507D01*
X98225800Y-101120362D01*
X98201688Y-101096250D01*
X98011124Y-100968919D01*
X97799381Y-100881212D01*
X97574595Y-100836500D01*
X97345405Y-100836500D01*
X97120619Y-100881212D01*
X96908876Y-100968919D01*
X96718312Y-101096250D01*
X96693800Y-101120762D01*
X96693800Y-97380492D01*
X96696238Y-97355741D01*
X96693683Y-97329800D01*
X96686507Y-97256941D01*
X96657688Y-97161937D01*
X96610888Y-97074380D01*
X96547906Y-96997636D01*
X96528678Y-96981856D01*
X96230322Y-96683500D01*
X96317002Y-96683500D01*
X96317002Y-96597668D01*
X96496360Y-96642442D01*
X96558868Y-96623487D01*
X96767060Y-96530321D01*
X96953076Y-96398329D01*
X97018444Y-96329184D01*
X97038712Y-96367104D01*
G37*
G04 #@! TD.AperFunction*
D18*
X94443458Y-92713569D02*
X94491636Y-92871939D01*
X94525397Y-93021341D01*
X94548722Y-93157300D01*
X94568129Y-93283650D01*
X94568189Y-93284006D01*
X94590162Y-93404199D01*
X94590376Y-93405156D01*
X94621442Y-93522849D01*
X94621899Y-93524249D01*
X94668597Y-93643190D01*
X94669318Y-93644718D01*
X94738190Y-93768650D01*
X94739060Y-93770006D01*
X94836645Y-93902676D01*
X94837507Y-93903725D01*
X94962142Y-94039916D01*
X94709916Y-94292142D01*
X94573725Y-94167507D01*
X94572676Y-94166645D01*
X94440006Y-94069060D01*
X94438650Y-94068190D01*
X94314718Y-93999318D01*
X94313190Y-93998597D01*
X94194249Y-93951899D01*
X94192849Y-93951442D01*
X94075156Y-93920376D01*
X94074199Y-93920162D01*
X93954006Y-93898189D01*
X93953650Y-93898129D01*
X93827300Y-93878722D01*
X93691341Y-93855397D01*
X93541939Y-93821636D01*
X93383569Y-93773458D01*
X93362436Y-92692436D01*
X94443458Y-92713569D01*
G04 #@! TA.AperFunction,Conductor*
D17*
G36*
X94443458Y-92713569D02*
G01*
X94491636Y-92871939D01*
X94525397Y-93021341D01*
X94548722Y-93157300D01*
X94568129Y-93283650D01*
X94568189Y-93284006D01*
X94590162Y-93404199D01*
X94590376Y-93405156D01*
X94621442Y-93522849D01*
X94621899Y-93524249D01*
X94668597Y-93643190D01*
X94669318Y-93644718D01*
X94738190Y-93768650D01*
X94739060Y-93770006D01*
X94836645Y-93902676D01*
X94837507Y-93903725D01*
X94962142Y-94039916D01*
X94709916Y-94292142D01*
X94573725Y-94167507D01*
X94572676Y-94166645D01*
X94440006Y-94069060D01*
X94438650Y-94068190D01*
X94314718Y-93999318D01*
X94313190Y-93998597D01*
X94194249Y-93951899D01*
X94192849Y-93951442D01*
X94075156Y-93920376D01*
X94074199Y-93920162D01*
X93954006Y-93898189D01*
X93953650Y-93898129D01*
X93827300Y-93878722D01*
X93691341Y-93855397D01*
X93541939Y-93821636D01*
X93383569Y-93773458D01*
X93362436Y-92692436D01*
X94443458Y-92713569D01*
G37*
G04 #@! TD.AperFunction*
D18*
X96232142Y-103480084D02*
X96107507Y-103616274D01*
X96106645Y-103617323D01*
X96009060Y-103749993D01*
X96008190Y-103751349D01*
X95939318Y-103875281D01*
X95938597Y-103876809D01*
X95891899Y-103995750D01*
X95891442Y-103997150D01*
X95860376Y-104114843D01*
X95860162Y-104115800D01*
X95838189Y-104235993D01*
X95838129Y-104236349D01*
X95818722Y-104362699D01*
X95795397Y-104498658D01*
X95761636Y-104648060D01*
X95713458Y-104806431D01*
X94632436Y-104827564D01*
X94653569Y-103746542D01*
X94811939Y-103698363D01*
X94961341Y-103664602D01*
X95097300Y-103641277D01*
X95223650Y-103621870D01*
X95224006Y-103621810D01*
X95344199Y-103599837D01*
X95345156Y-103599623D01*
X95462849Y-103568557D01*
X95464249Y-103568100D01*
X95583190Y-103521402D01*
X95584718Y-103520681D01*
X95708650Y-103451809D01*
X95710006Y-103450939D01*
X95842676Y-103353354D01*
X95843725Y-103352492D01*
X95979916Y-103227858D01*
X96232142Y-103480084D01*
G04 #@! TA.AperFunction,Conductor*
D17*
G36*
X96232142Y-103480084D02*
G01*
X96107507Y-103616274D01*
X96106645Y-103617323D01*
X96009060Y-103749993D01*
X96008190Y-103751349D01*
X95939318Y-103875281D01*
X95938597Y-103876809D01*
X95891899Y-103995750D01*
X95891442Y-103997150D01*
X95860376Y-104114843D01*
X95860162Y-104115800D01*
X95838189Y-104235993D01*
X95838129Y-104236349D01*
X95818722Y-104362699D01*
X95795397Y-104498658D01*
X95761636Y-104648060D01*
X95713458Y-104806431D01*
X94632436Y-104827564D01*
X94653569Y-103746542D01*
X94811939Y-103698363D01*
X94961341Y-103664602D01*
X95097300Y-103641277D01*
X95223650Y-103621870D01*
X95224006Y-103621810D01*
X95344199Y-103599837D01*
X95345156Y-103599623D01*
X95462849Y-103568557D01*
X95464249Y-103568100D01*
X95583190Y-103521402D01*
X95584718Y-103520681D01*
X95708650Y-103451809D01*
X95710006Y-103450939D01*
X95842676Y-103353354D01*
X95843725Y-103352492D01*
X95979916Y-103227858D01*
X96232142Y-103480084D01*
G37*
G04 #@! TD.AperFunction*
D18*
X96983458Y-92713569D02*
X97031636Y-92871939D01*
X97065397Y-93021341D01*
X97088722Y-93157300D01*
X97108129Y-93283650D01*
X97108189Y-93284006D01*
X97130162Y-93404199D01*
X97130376Y-93405156D01*
X97161442Y-93522849D01*
X97161899Y-93524249D01*
X97208597Y-93643190D01*
X97209318Y-93644718D01*
X97278190Y-93768650D01*
X97279060Y-93770006D01*
X97376645Y-93902676D01*
X97377507Y-93903725D01*
X97502142Y-94039916D01*
X97249916Y-94292142D01*
X97113725Y-94167507D01*
X97112676Y-94166645D01*
X96980006Y-94069060D01*
X96978650Y-94068190D01*
X96854718Y-93999318D01*
X96853190Y-93998597D01*
X96734249Y-93951899D01*
X96732849Y-93951442D01*
X96615156Y-93920376D01*
X96614199Y-93920162D01*
X96494006Y-93898189D01*
X96493650Y-93898129D01*
X96367300Y-93878722D01*
X96231341Y-93855397D01*
X96081939Y-93821636D01*
X95923569Y-93773458D01*
X95902436Y-92692436D01*
X96983458Y-92713569D01*
G04 #@! TA.AperFunction,Conductor*
D17*
G36*
X96983458Y-92713569D02*
G01*
X97031636Y-92871939D01*
X97065397Y-93021341D01*
X97088722Y-93157300D01*
X97108129Y-93283650D01*
X97108189Y-93284006D01*
X97130162Y-93404199D01*
X97130376Y-93405156D01*
X97161442Y-93522849D01*
X97161899Y-93524249D01*
X97208597Y-93643190D01*
X97209318Y-93644718D01*
X97278190Y-93768650D01*
X97279060Y-93770006D01*
X97376645Y-93902676D01*
X97377507Y-93903725D01*
X97502142Y-94039916D01*
X97249916Y-94292142D01*
X97113725Y-94167507D01*
X97112676Y-94166645D01*
X96980006Y-94069060D01*
X96978650Y-94068190D01*
X96854718Y-93999318D01*
X96853190Y-93998597D01*
X96734249Y-93951899D01*
X96732849Y-93951442D01*
X96615156Y-93920376D01*
X96614199Y-93920162D01*
X96494006Y-93898189D01*
X96493650Y-93898129D01*
X96367300Y-93878722D01*
X96231341Y-93855397D01*
X96081939Y-93821636D01*
X95923569Y-93773458D01*
X95902436Y-92692436D01*
X96983458Y-92713569D01*
G37*
G04 #@! TD.AperFunction*
D18*
X99076274Y-103352492D02*
X99077323Y-103353354D01*
X99209993Y-103450939D01*
X99211349Y-103451809D01*
X99335281Y-103520681D01*
X99336809Y-103521402D01*
X99455750Y-103568100D01*
X99457150Y-103568557D01*
X99574843Y-103599623D01*
X99575800Y-103599837D01*
X99695993Y-103621810D01*
X99696349Y-103621870D01*
X99822699Y-103641277D01*
X99958658Y-103664602D01*
X100108060Y-103698363D01*
X100266431Y-103746542D01*
X100287564Y-104827564D01*
X99206542Y-104806431D01*
X99158363Y-104648060D01*
X99124602Y-104498658D01*
X99101277Y-104362699D01*
X99081870Y-104236349D01*
X99081810Y-104235993D01*
X99059837Y-104115800D01*
X99059623Y-104114843D01*
X99028557Y-103997150D01*
X99028100Y-103995750D01*
X98981402Y-103876809D01*
X98980681Y-103875281D01*
X98911809Y-103751349D01*
X98910939Y-103749993D01*
X98813354Y-103617323D01*
X98812492Y-103616274D01*
X98687858Y-103480084D01*
X98940084Y-103227858D01*
X99076274Y-103352492D01*
G04 #@! TA.AperFunction,Conductor*
D17*
G36*
X99076274Y-103352492D02*
G01*
X99077323Y-103353354D01*
X99209993Y-103450939D01*
X99211349Y-103451809D01*
X99335281Y-103520681D01*
X99336809Y-103521402D01*
X99455750Y-103568100D01*
X99457150Y-103568557D01*
X99574843Y-103599623D01*
X99575800Y-103599837D01*
X99695993Y-103621810D01*
X99696349Y-103621870D01*
X99822699Y-103641277D01*
X99958658Y-103664602D01*
X100108060Y-103698363D01*
X100266431Y-103746542D01*
X100287564Y-104827564D01*
X99206542Y-104806431D01*
X99158363Y-104648060D01*
X99124602Y-104498658D01*
X99101277Y-104362699D01*
X99081870Y-104236349D01*
X99081810Y-104235993D01*
X99059837Y-104115800D01*
X99059623Y-104114843D01*
X99028557Y-103997150D01*
X99028100Y-103995750D01*
X98981402Y-103876809D01*
X98980681Y-103875281D01*
X98911809Y-103751349D01*
X98910939Y-103749993D01*
X98813354Y-103617323D01*
X98812492Y-103616274D01*
X98687858Y-103480084D01*
X98940084Y-103227858D01*
X99076274Y-103352492D01*
G37*
G04 #@! TD.AperFunction*
D18*
X102063458Y-92713569D02*
X102111636Y-92871939D01*
X102145397Y-93021341D01*
X102168722Y-93157300D01*
X102188129Y-93283650D01*
X102188189Y-93284006D01*
X102210162Y-93404199D01*
X102210376Y-93405156D01*
X102241442Y-93522849D01*
X102241899Y-93524249D01*
X102288597Y-93643190D01*
X102289318Y-93644718D01*
X102358190Y-93768650D01*
X102359060Y-93770006D01*
X102456645Y-93902676D01*
X102457507Y-93903725D01*
X102582142Y-94039916D01*
X102329916Y-94292142D01*
X102193725Y-94167507D01*
X102192676Y-94166645D01*
X102060006Y-94069060D01*
X102058650Y-94068190D01*
X101934718Y-93999318D01*
X101933190Y-93998597D01*
X101814249Y-93951899D01*
X101812849Y-93951442D01*
X101695156Y-93920376D01*
X101694199Y-93920162D01*
X101574006Y-93898189D01*
X101573650Y-93898129D01*
X101447300Y-93878722D01*
X101311341Y-93855397D01*
X101161939Y-93821636D01*
X101003569Y-93773458D01*
X100982436Y-92692436D01*
X102063458Y-92713569D01*
G04 #@! TA.AperFunction,Conductor*
D17*
G36*
X102063458Y-92713569D02*
G01*
X102111636Y-92871939D01*
X102145397Y-93021341D01*
X102168722Y-93157300D01*
X102188129Y-93283650D01*
X102188189Y-93284006D01*
X102210162Y-93404199D01*
X102210376Y-93405156D01*
X102241442Y-93522849D01*
X102241899Y-93524249D01*
X102288597Y-93643190D01*
X102289318Y-93644718D01*
X102358190Y-93768650D01*
X102359060Y-93770006D01*
X102456645Y-93902676D01*
X102457507Y-93903725D01*
X102582142Y-94039916D01*
X102329916Y-94292142D01*
X102193725Y-94167507D01*
X102192676Y-94166645D01*
X102060006Y-94069060D01*
X102058650Y-94068190D01*
X101934718Y-93999318D01*
X101933190Y-93998597D01*
X101814249Y-93951899D01*
X101812849Y-93951442D01*
X101695156Y-93920376D01*
X101694199Y-93920162D01*
X101574006Y-93898189D01*
X101573650Y-93898129D01*
X101447300Y-93878722D01*
X101311341Y-93855397D01*
X101161939Y-93821636D01*
X101003569Y-93773458D01*
X100982436Y-92692436D01*
X102063458Y-92713569D01*
G37*
G04 #@! TD.AperFunction*
D18*
X101616274Y-103352492D02*
X101617323Y-103353354D01*
X101749993Y-103450939D01*
X101751349Y-103451809D01*
X101875281Y-103520681D01*
X101876809Y-103521402D01*
X101995750Y-103568100D01*
X101997150Y-103568557D01*
X102114843Y-103599623D01*
X102115800Y-103599837D01*
X102235993Y-103621810D01*
X102236349Y-103621870D01*
X102362699Y-103641277D01*
X102498658Y-103664602D01*
X102648060Y-103698363D01*
X102806431Y-103746542D01*
X102827564Y-104827564D01*
X101746542Y-104806431D01*
X101698363Y-104648060D01*
X101664602Y-104498658D01*
X101641277Y-104362699D01*
X101621870Y-104236349D01*
X101621810Y-104235993D01*
X101599837Y-104115800D01*
X101599623Y-104114843D01*
X101568557Y-103997150D01*
X101568100Y-103995750D01*
X101521402Y-103876809D01*
X101520681Y-103875281D01*
X101451809Y-103751349D01*
X101450939Y-103749993D01*
X101353354Y-103617323D01*
X101352492Y-103616274D01*
X101227858Y-103480084D01*
X101480084Y-103227858D01*
X101616274Y-103352492D01*
G04 #@! TA.AperFunction,Conductor*
D17*
G36*
X101616274Y-103352492D02*
G01*
X101617323Y-103353354D01*
X101749993Y-103450939D01*
X101751349Y-103451809D01*
X101875281Y-103520681D01*
X101876809Y-103521402D01*
X101995750Y-103568100D01*
X101997150Y-103568557D01*
X102114843Y-103599623D01*
X102115800Y-103599837D01*
X102235993Y-103621810D01*
X102236349Y-103621870D01*
X102362699Y-103641277D01*
X102498658Y-103664602D01*
X102648060Y-103698363D01*
X102806431Y-103746542D01*
X102827564Y-104827564D01*
X101746542Y-104806431D01*
X101698363Y-104648060D01*
X101664602Y-104498658D01*
X101641277Y-104362699D01*
X101621870Y-104236349D01*
X101621810Y-104235993D01*
X101599837Y-104115800D01*
X101599623Y-104114843D01*
X101568557Y-103997150D01*
X101568100Y-103995750D01*
X101521402Y-103876809D01*
X101520681Y-103875281D01*
X101451809Y-103751349D01*
X101450939Y-103749993D01*
X101353354Y-103617323D01*
X101352492Y-103616274D01*
X101227858Y-103480084D01*
X101480084Y-103227858D01*
X101616274Y-103352492D01*
G37*
G04 #@! TD.AperFunction*
D18*
X106616431Y-93773458D02*
X106458060Y-93821636D01*
X106308658Y-93855397D01*
X106172699Y-93878722D01*
X106046349Y-93898129D01*
X106045993Y-93898189D01*
X105925800Y-93920162D01*
X105924843Y-93920376D01*
X105807150Y-93951442D01*
X105805750Y-93951899D01*
X105686809Y-93998597D01*
X105685281Y-93999318D01*
X105561349Y-94068190D01*
X105559993Y-94069060D01*
X105427323Y-94166645D01*
X105426274Y-94167507D01*
X105290084Y-94292142D01*
X105037858Y-94039916D01*
X105162492Y-93903725D01*
X105163354Y-93902676D01*
X105260939Y-93770006D01*
X105261809Y-93768650D01*
X105330681Y-93644718D01*
X105331402Y-93643190D01*
X105378100Y-93524249D01*
X105378557Y-93522849D01*
X105409623Y-93405156D01*
X105409837Y-93404199D01*
X105431810Y-93284006D01*
X105431870Y-93283650D01*
X105451277Y-93157300D01*
X105474602Y-93021341D01*
X105508363Y-92871939D01*
X105556542Y-92713569D01*
X106637564Y-92692436D01*
X106616431Y-93773458D01*
G04 #@! TA.AperFunction,Conductor*
D17*
G36*
X106616431Y-93773458D02*
G01*
X106458060Y-93821636D01*
X106308658Y-93855397D01*
X106172699Y-93878722D01*
X106046349Y-93898129D01*
X106045993Y-93898189D01*
X105925800Y-93920162D01*
X105924843Y-93920376D01*
X105807150Y-93951442D01*
X105805750Y-93951899D01*
X105686809Y-93998597D01*
X105685281Y-93999318D01*
X105561349Y-94068190D01*
X105559993Y-94069060D01*
X105427323Y-94166645D01*
X105426274Y-94167507D01*
X105290084Y-94292142D01*
X105037858Y-94039916D01*
X105162492Y-93903725D01*
X105163354Y-93902676D01*
X105260939Y-93770006D01*
X105261809Y-93768650D01*
X105330681Y-93644718D01*
X105331402Y-93643190D01*
X105378100Y-93524249D01*
X105378557Y-93522849D01*
X105409623Y-93405156D01*
X105409837Y-93404199D01*
X105431810Y-93284006D01*
X105431870Y-93283650D01*
X105451277Y-93157300D01*
X105474602Y-93021341D01*
X105508363Y-92871939D01*
X105556542Y-92713569D01*
X106637564Y-92692436D01*
X106616431Y-93773458D01*
G37*
G04 #@! TD.AperFunction*
D18*
X98253458Y-104273569D02*
X98301636Y-104431939D01*
X98335397Y-104581341D01*
X98358722Y-104717300D01*
X98378129Y-104843650D01*
X98378189Y-104844006D01*
X98400162Y-104964199D01*
X98400376Y-104965156D01*
X98431442Y-105082849D01*
X98431899Y-105084249D01*
X98478597Y-105203190D01*
X98479318Y-105204718D01*
X98548190Y-105328650D01*
X98549060Y-105330006D01*
X98646645Y-105462676D01*
X98647507Y-105463725D01*
X98772142Y-105599916D01*
X98519916Y-105852142D01*
X98383725Y-105727507D01*
X98382676Y-105726645D01*
X98250006Y-105629060D01*
X98248650Y-105628190D01*
X98124718Y-105559318D01*
X98123190Y-105558597D01*
X98004249Y-105511899D01*
X98002849Y-105511442D01*
X97885156Y-105480376D01*
X97884199Y-105480162D01*
X97764006Y-105458189D01*
X97763650Y-105458129D01*
X97637300Y-105438722D01*
X97501341Y-105415397D01*
X97351939Y-105381636D01*
X97193569Y-105333458D01*
X97172436Y-104252436D01*
X98253458Y-104273569D01*
G04 #@! TA.AperFunction,Conductor*
D17*
G36*
X98253458Y-104273569D02*
G01*
X98301636Y-104431939D01*
X98335397Y-104581341D01*
X98358722Y-104717300D01*
X98378129Y-104843650D01*
X98378189Y-104844006D01*
X98400162Y-104964199D01*
X98400376Y-104965156D01*
X98431442Y-105082849D01*
X98431899Y-105084249D01*
X98478597Y-105203190D01*
X98479318Y-105204718D01*
X98548190Y-105328650D01*
X98549060Y-105330006D01*
X98646645Y-105462676D01*
X98647507Y-105463725D01*
X98772142Y-105599916D01*
X98519916Y-105852142D01*
X98383725Y-105727507D01*
X98382676Y-105726645D01*
X98250006Y-105629060D01*
X98248650Y-105628190D01*
X98124718Y-105559318D01*
X98123190Y-105558597D01*
X98004249Y-105511899D01*
X98002849Y-105511442D01*
X97885156Y-105480376D01*
X97884199Y-105480162D01*
X97764006Y-105458189D01*
X97763650Y-105458129D01*
X97637300Y-105438722D01*
X97501341Y-105415397D01*
X97351939Y-105381636D01*
X97193569Y-105333458D01*
X97172436Y-104252436D01*
X98253458Y-104273569D01*
G37*
G04 #@! TD.AperFunction*
D18*
X112179455Y-95892663D02*
X112101534Y-96038720D01*
X112019762Y-96168238D01*
X111940120Y-96280868D01*
X111864502Y-96383929D01*
X111864292Y-96384223D01*
X111794840Y-96484749D01*
X111794314Y-96485577D01*
X111733059Y-96590766D01*
X111732393Y-96592080D01*
X111681311Y-96709205D01*
X111680740Y-96710795D01*
X111641806Y-96847129D01*
X111641463Y-96848703D01*
X111616653Y-97011517D01*
X111616520Y-97012868D01*
X111608350Y-97197300D01*
X111251650Y-97197300D01*
X111243479Y-97012868D01*
X111243346Y-97011517D01*
X111218536Y-96848703D01*
X111218193Y-96847129D01*
X111179259Y-96710795D01*
X111178688Y-96709205D01*
X111127606Y-96592080D01*
X111126940Y-96590766D01*
X111065685Y-96485577D01*
X111065159Y-96484749D01*
X110995707Y-96384223D01*
X110995497Y-96383929D01*
X110919879Y-96280868D01*
X110840237Y-96168238D01*
X110758465Y-96038720D01*
X110680545Y-95892663D01*
X111430000Y-95113322D01*
X112179455Y-95892663D01*
G04 #@! TA.AperFunction,Conductor*
D17*
G36*
X112179455Y-95892663D02*
G01*
X112101534Y-96038720D01*
X112019762Y-96168238D01*
X111940120Y-96280868D01*
X111864502Y-96383929D01*
X111864292Y-96384223D01*
X111794840Y-96484749D01*
X111794314Y-96485577D01*
X111733059Y-96590766D01*
X111732393Y-96592080D01*
X111681311Y-96709205D01*
X111680740Y-96710795D01*
X111641806Y-96847129D01*
X111641463Y-96848703D01*
X111616653Y-97011517D01*
X111616520Y-97012868D01*
X111608350Y-97197300D01*
X111251650Y-97197300D01*
X111243479Y-97012868D01*
X111243346Y-97011517D01*
X111218536Y-96848703D01*
X111218193Y-96847129D01*
X111179259Y-96710795D01*
X111178688Y-96709205D01*
X111127606Y-96592080D01*
X111126940Y-96590766D01*
X111065685Y-96485577D01*
X111065159Y-96484749D01*
X110995707Y-96384223D01*
X110995497Y-96383929D01*
X110919879Y-96280868D01*
X110840237Y-96168238D01*
X110758465Y-96038720D01*
X110680545Y-95892663D01*
X111430000Y-95113322D01*
X112179455Y-95892663D01*
G37*
G04 #@! TD.AperFunction*
D18*
X105362471Y-100503920D02*
X105271574Y-100618416D01*
X105270225Y-100620509D01*
X105269589Y-100621963D01*
X105228236Y-100735377D01*
X105227617Y-100737788D01*
X105227489Y-100740449D01*
X105233543Y-100846748D01*
X105233927Y-100849208D01*
X105234572Y-100851082D01*
X105278853Y-100953109D01*
X105280240Y-100955534D01*
X105353571Y-101056127D01*
X105354459Y-101057213D01*
X105447662Y-101159211D01*
X105447957Y-101159523D01*
X105551749Y-101265662D01*
X105656700Y-101378497D01*
X105753615Y-101500700D01*
X105829137Y-101627668D01*
X105080000Y-102406678D01*
X104330149Y-101626925D01*
X104407585Y-101458006D01*
X104407780Y-101457558D01*
X104472019Y-101301862D01*
X104472133Y-101301576D01*
X104525741Y-101162156D01*
X104525742Y-101162152D01*
X104574817Y-101034403D01*
X104625473Y-100913617D01*
X104683841Y-100794972D01*
X104756130Y-100673473D01*
X104848585Y-100544157D01*
X104967492Y-100402098D01*
X105110287Y-100251736D01*
X105362471Y-100503920D01*
G04 #@! TA.AperFunction,Conductor*
D17*
G36*
X105362471Y-100503920D02*
G01*
X105271574Y-100618416D01*
X105270225Y-100620509D01*
X105269589Y-100621963D01*
X105228236Y-100735377D01*
X105227617Y-100737788D01*
X105227489Y-100740449D01*
X105233543Y-100846748D01*
X105233927Y-100849208D01*
X105234572Y-100851082D01*
X105278853Y-100953109D01*
X105280240Y-100955534D01*
X105353571Y-101056127D01*
X105354459Y-101057213D01*
X105447662Y-101159211D01*
X105447957Y-101159523D01*
X105551749Y-101265662D01*
X105656700Y-101378497D01*
X105753615Y-101500700D01*
X105829137Y-101627668D01*
X105080000Y-102406678D01*
X104330149Y-101626925D01*
X104407585Y-101458006D01*
X104407780Y-101457558D01*
X104472019Y-101301862D01*
X104472133Y-101301576D01*
X104525741Y-101162156D01*
X104525742Y-101162152D01*
X104574817Y-101034403D01*
X104625473Y-100913617D01*
X104683841Y-100794972D01*
X104756130Y-100673473D01*
X104848585Y-100544157D01*
X104967492Y-100402098D01*
X105110287Y-100251736D01*
X105362471Y-100503920D01*
G37*
G04 #@! TD.AperFunction*
D18*
X111616520Y-94027131D02*
X111616653Y-94028482D01*
X111641463Y-94191296D01*
X111641806Y-94192870D01*
X111680740Y-94329204D01*
X111681311Y-94330794D01*
X111732393Y-94447919D01*
X111733059Y-94449233D01*
X111794314Y-94554422D01*
X111794840Y-94555250D01*
X111864292Y-94655776D01*
X111864502Y-94656070D01*
X111940120Y-94759131D01*
X112019762Y-94871761D01*
X112101534Y-95001279D01*
X112179455Y-95147337D01*
X111430000Y-95926678D01*
X110680545Y-95147337D01*
X110758465Y-95001279D01*
X110840237Y-94871761D01*
X110919879Y-94759131D01*
X110995497Y-94656070D01*
X110995707Y-94655776D01*
X111065159Y-94555250D01*
X111065685Y-94554422D01*
X111126940Y-94449233D01*
X111127606Y-94447919D01*
X111178688Y-94330794D01*
X111179259Y-94329204D01*
X111218193Y-94192870D01*
X111218536Y-94191296D01*
X111243346Y-94028482D01*
X111243479Y-94027131D01*
X111251650Y-93842700D01*
X111608350Y-93842700D01*
X111616520Y-94027131D01*
G04 #@! TA.AperFunction,Conductor*
D17*
G36*
X111616520Y-94027131D02*
G01*
X111616653Y-94028482D01*
X111641463Y-94191296D01*
X111641806Y-94192870D01*
X111680740Y-94329204D01*
X111681311Y-94330794D01*
X111732393Y-94447919D01*
X111733059Y-94449233D01*
X111794314Y-94554422D01*
X111794840Y-94555250D01*
X111864292Y-94655776D01*
X111864502Y-94656070D01*
X111940120Y-94759131D01*
X112019762Y-94871761D01*
X112101534Y-95001279D01*
X112179455Y-95147337D01*
X111430000Y-95926678D01*
X110680545Y-95147337D01*
X110758465Y-95001279D01*
X110840237Y-94871761D01*
X110919879Y-94759131D01*
X110995497Y-94656070D01*
X110995707Y-94655776D01*
X111065159Y-94555250D01*
X111065685Y-94554422D01*
X111126940Y-94449233D01*
X111127606Y-94447919D01*
X111178688Y-94330794D01*
X111179259Y-94329204D01*
X111218193Y-94192870D01*
X111218536Y-94191296D01*
X111243346Y-94028482D01*
X111243479Y-94027131D01*
X111251650Y-93842700D01*
X111608350Y-93842700D01*
X111616520Y-94027131D01*
G37*
G04 #@! TD.AperFunction*
D18*
X112179455Y-93352663D02*
X112101534Y-93498720D01*
X112019762Y-93628238D01*
X111940120Y-93740868D01*
X111864502Y-93843929D01*
X111864292Y-93844223D01*
X111794840Y-93944749D01*
X111794314Y-93945577D01*
X111733059Y-94050766D01*
X111732393Y-94052080D01*
X111681311Y-94169205D01*
X111680740Y-94170795D01*
X111641806Y-94307129D01*
X111641463Y-94308703D01*
X111616653Y-94471517D01*
X111616520Y-94472868D01*
X111608350Y-94657300D01*
X111251650Y-94657300D01*
X111243479Y-94472868D01*
X111243346Y-94471517D01*
X111218536Y-94308703D01*
X111218193Y-94307129D01*
X111179259Y-94170795D01*
X111178688Y-94169205D01*
X111127606Y-94052080D01*
X111126940Y-94050766D01*
X111065685Y-93945577D01*
X111065159Y-93944749D01*
X110995707Y-93844223D01*
X110995497Y-93843929D01*
X110919879Y-93740868D01*
X110840237Y-93628238D01*
X110758465Y-93498720D01*
X110680545Y-93352663D01*
X111430000Y-92573322D01*
X112179455Y-93352663D01*
G04 #@! TA.AperFunction,Conductor*
D17*
G36*
X112179455Y-93352663D02*
G01*
X112101534Y-93498720D01*
X112019762Y-93628238D01*
X111940120Y-93740868D01*
X111864502Y-93843929D01*
X111864292Y-93844223D01*
X111794840Y-93944749D01*
X111794314Y-93945577D01*
X111733059Y-94050766D01*
X111732393Y-94052080D01*
X111681311Y-94169205D01*
X111680740Y-94170795D01*
X111641806Y-94307129D01*
X111641463Y-94308703D01*
X111616653Y-94471517D01*
X111616520Y-94472868D01*
X111608350Y-94657300D01*
X111251650Y-94657300D01*
X111243479Y-94472868D01*
X111243346Y-94471517D01*
X111218536Y-94308703D01*
X111218193Y-94307129D01*
X111179259Y-94170795D01*
X111178688Y-94169205D01*
X111127606Y-94052080D01*
X111126940Y-94050766D01*
X111065685Y-93945577D01*
X111065159Y-93944749D01*
X110995707Y-93844223D01*
X110995497Y-93843929D01*
X110919879Y-93740868D01*
X110840237Y-93628238D01*
X110758465Y-93498720D01*
X110680545Y-93352663D01*
X111430000Y-92573322D01*
X112179455Y-93352663D01*
G37*
G04 #@! TD.AperFunction*
D18*
X105873458Y-101733569D02*
X105921636Y-101891939D01*
X105955397Y-102041341D01*
X105978722Y-102177300D01*
X105998129Y-102303650D01*
X105998189Y-102304006D01*
X106020162Y-102424199D01*
X106020376Y-102425156D01*
X106051442Y-102542849D01*
X106051899Y-102544249D01*
X106098597Y-102663190D01*
X106099318Y-102664718D01*
X106168190Y-102788650D01*
X106169060Y-102790006D01*
X106266645Y-102922676D01*
X106267507Y-102923725D01*
X106392142Y-103059916D01*
X106139916Y-103312142D01*
X106003725Y-103187507D01*
X106002676Y-103186645D01*
X105870006Y-103089060D01*
X105868650Y-103088190D01*
X105744718Y-103019318D01*
X105743190Y-103018597D01*
X105624249Y-102971899D01*
X105622849Y-102971442D01*
X105505156Y-102940376D01*
X105504199Y-102940162D01*
X105384006Y-102918189D01*
X105383650Y-102918129D01*
X105257300Y-102898722D01*
X105121341Y-102875397D01*
X104971939Y-102841636D01*
X104813569Y-102793458D01*
X104792436Y-101712436D01*
X105873458Y-101733569D01*
G04 #@! TA.AperFunction,Conductor*
D17*
G36*
X105873458Y-101733569D02*
G01*
X105921636Y-101891939D01*
X105955397Y-102041341D01*
X105978722Y-102177300D01*
X105998129Y-102303650D01*
X105998189Y-102304006D01*
X106020162Y-102424199D01*
X106020376Y-102425156D01*
X106051442Y-102542849D01*
X106051899Y-102544249D01*
X106098597Y-102663190D01*
X106099318Y-102664718D01*
X106168190Y-102788650D01*
X106169060Y-102790006D01*
X106266645Y-102922676D01*
X106267507Y-102923725D01*
X106392142Y-103059916D01*
X106139916Y-103312142D01*
X106003725Y-103187507D01*
X106002676Y-103186645D01*
X105870006Y-103089060D01*
X105868650Y-103088190D01*
X105744718Y-103019318D01*
X105743190Y-103018597D01*
X105624249Y-102971899D01*
X105622849Y-102971442D01*
X105505156Y-102940376D01*
X105504199Y-102940162D01*
X105384006Y-102918189D01*
X105383650Y-102918129D01*
X105257300Y-102898722D01*
X105121341Y-102875397D01*
X104971939Y-102841636D01*
X104813569Y-102793458D01*
X104792436Y-101712436D01*
X105873458Y-101733569D01*
G37*
G04 #@! TD.AperFunction*
D18*
X104212182Y-109553464D02*
X104126076Y-109659936D01*
X104124231Y-109663030D01*
X104079307Y-109770668D01*
X104078578Y-109773049D01*
X104078337Y-109775058D01*
X104074297Y-109877233D01*
X104074443Y-109879719D01*
X104074812Y-109881347D01*
X104104175Y-109980316D01*
X104105288Y-109982943D01*
X104160571Y-110080960D01*
X104161435Y-110082290D01*
X104235158Y-110181612D01*
X104235550Y-110182114D01*
X104320172Y-110284925D01*
X104408106Y-110393351D01*
X104491646Y-110509279D01*
X104559256Y-110627543D01*
X103810000Y-111406678D01*
X103060267Y-110627048D01*
X103141617Y-110457787D01*
X103214975Y-110305275D01*
X103281407Y-110171886D01*
X103345823Y-110051959D01*
X103413198Y-109939702D01*
X103488470Y-109829395D01*
X103576701Y-109715177D01*
X103682851Y-109591363D01*
X103811923Y-109452222D01*
X103959926Y-109301208D01*
X104212182Y-109553464D01*
G04 #@! TA.AperFunction,Conductor*
D17*
G36*
X104212182Y-109553464D02*
G01*
X104126076Y-109659936D01*
X104124231Y-109663030D01*
X104079307Y-109770668D01*
X104078578Y-109773049D01*
X104078337Y-109775058D01*
X104074297Y-109877233D01*
X104074443Y-109879719D01*
X104074812Y-109881347D01*
X104104175Y-109980316D01*
X104105288Y-109982943D01*
X104160571Y-110080960D01*
X104161435Y-110082290D01*
X104235158Y-110181612D01*
X104235550Y-110182114D01*
X104320172Y-110284925D01*
X104408106Y-110393351D01*
X104491646Y-110509279D01*
X104559256Y-110627543D01*
X103810000Y-111406678D01*
X103060267Y-110627048D01*
X103141617Y-110457787D01*
X103214975Y-110305275D01*
X103281407Y-110171886D01*
X103345823Y-110051959D01*
X103413198Y-109939702D01*
X103488470Y-109829395D01*
X103576701Y-109715177D01*
X103682851Y-109591363D01*
X103811923Y-109452222D01*
X103959926Y-109301208D01*
X104212182Y-109553464D01*
G37*
G04 #@! TD.AperFunction*
D18*
X105829771Y-104912992D02*
X105749726Y-105082048D01*
X105749660Y-105082188D01*
X105679232Y-105235743D01*
X105679233Y-105235743D01*
X105616913Y-105371106D01*
X105557388Y-105493649D01*
X105495386Y-105608699D01*
X105425536Y-105721780D01*
X105342462Y-105838383D01*
X105240740Y-105964016D01*
X105115015Y-106104064D01*
X104968777Y-106254797D01*
X104716541Y-106002561D01*
X104804122Y-105893557D01*
X104805484Y-105891472D01*
X104806017Y-105890311D01*
X104849732Y-105780824D01*
X104850424Y-105778433D01*
X104850637Y-105776206D01*
X104851379Y-105672683D01*
X104851152Y-105670204D01*
X104850696Y-105668482D01*
X104816494Y-105568488D01*
X104815280Y-105565921D01*
X104754161Y-105467024D01*
X104753284Y-105465778D01*
X104673277Y-105365544D01*
X104672915Y-105365111D01*
X104582102Y-105261171D01*
X104488729Y-105151348D01*
X104400897Y-105033410D01*
X104330784Y-104912415D01*
X105080000Y-104133322D01*
X105829771Y-104912992D01*
G04 #@! TA.AperFunction,Conductor*
D17*
G36*
X105829771Y-104912992D02*
G01*
X105749726Y-105082048D01*
X105749660Y-105082188D01*
X105679232Y-105235743D01*
X105679233Y-105235743D01*
X105616913Y-105371106D01*
X105557388Y-105493649D01*
X105495386Y-105608699D01*
X105425536Y-105721780D01*
X105342462Y-105838383D01*
X105240740Y-105964016D01*
X105115015Y-106104064D01*
X104968777Y-106254797D01*
X104716541Y-106002561D01*
X104804122Y-105893557D01*
X104805484Y-105891472D01*
X104806017Y-105890311D01*
X104849732Y-105780824D01*
X104850424Y-105778433D01*
X104850637Y-105776206D01*
X104851379Y-105672683D01*
X104851152Y-105670204D01*
X104850696Y-105668482D01*
X104816494Y-105568488D01*
X104815280Y-105565921D01*
X104754161Y-105467024D01*
X104753284Y-105465778D01*
X104673277Y-105365544D01*
X104672915Y-105365111D01*
X104582102Y-105261171D01*
X104488729Y-105151348D01*
X104400897Y-105033410D01*
X104330784Y-104912415D01*
X105080000Y-104133322D01*
X105829771Y-104912992D01*
G37*
G04 #@! TD.AperFunction*
D18*
X101672182Y-109553464D02*
X101586076Y-109659936D01*
X101584231Y-109663030D01*
X101539307Y-109770668D01*
X101538578Y-109773049D01*
X101538337Y-109775058D01*
X101534297Y-109877233D01*
X101534443Y-109879719D01*
X101534812Y-109881347D01*
X101564175Y-109980316D01*
X101565288Y-109982943D01*
X101620571Y-110080960D01*
X101621435Y-110082290D01*
X101695158Y-110181612D01*
X101695550Y-110182114D01*
X101780172Y-110284925D01*
X101868106Y-110393351D01*
X101951646Y-110509279D01*
X102019256Y-110627543D01*
X101270000Y-111406678D01*
X100520267Y-110627048D01*
X100601617Y-110457787D01*
X100674975Y-110305275D01*
X100741407Y-110171886D01*
X100805823Y-110051959D01*
X100873198Y-109939702D01*
X100948470Y-109829395D01*
X101036701Y-109715177D01*
X101142851Y-109591363D01*
X101271923Y-109452222D01*
X101419926Y-109301208D01*
X101672182Y-109553464D01*
G04 #@! TA.AperFunction,Conductor*
D17*
G36*
X101672182Y-109553464D02*
G01*
X101586076Y-109659936D01*
X101584231Y-109663030D01*
X101539307Y-109770668D01*
X101538578Y-109773049D01*
X101538337Y-109775058D01*
X101534297Y-109877233D01*
X101534443Y-109879719D01*
X101534812Y-109881347D01*
X101564175Y-109980316D01*
X101565288Y-109982943D01*
X101620571Y-110080960D01*
X101621435Y-110082290D01*
X101695158Y-110181612D01*
X101695550Y-110182114D01*
X101780172Y-110284925D01*
X101868106Y-110393351D01*
X101951646Y-110509279D01*
X102019256Y-110627543D01*
X101270000Y-111406678D01*
X100520267Y-110627048D01*
X100601617Y-110457787D01*
X100674975Y-110305275D01*
X100741407Y-110171886D01*
X100805823Y-110051959D01*
X100873198Y-109939702D01*
X100948470Y-109829395D01*
X101036701Y-109715177D01*
X101142851Y-109591363D01*
X101271923Y-109452222D01*
X101419926Y-109301208D01*
X101672182Y-109553464D01*
G37*
G04 #@! TD.AperFunction*
M02*
